<svg xmlns="http://www.w3.org/2000/svg" xmlns:xlink="http://www.w3.org/1999/xlink" width="329.829" height="227.487" viewBox="0 0 329.829 227.487">
  <defs>
    <clipPath id="clip-path">
      <rect id="Rectangle_4844" data-name="Rectangle 4844" width="329.829" height="227.487" fill="none"/>
    </clipPath>
    <clipPath id="clip-path-2">
      <rect id="Rectangle_4843" data-name="Rectangle 4843" width="329.828" height="227.487" fill="none"/>
    </clipPath>
    <clipPath id="clip-path-3">
      <rect id="Rectangle_4802" data-name="Rectangle 4802" width="28.224" height="17.458" fill="none"/>
    </clipPath>
    <clipPath id="clip-path-4">
      <rect id="Rectangle_4803" data-name="Rectangle 4803" width="7" height="10.105" fill="none"/>
    </clipPath>
    <clipPath id="clip-path-5">
      <rect id="Rectangle_4804" data-name="Rectangle 4804" width="63.303" height="31.692" fill="none"/>
    </clipPath>
    <clipPath id="clip-path-6">
      <rect id="Rectangle_4805" data-name="Rectangle 4805" width="7.809" height="21.308" fill="none"/>
    </clipPath>
    <clipPath id="clip-path-8">
      <rect id="Rectangle_4807" data-name="Rectangle 4807" width="7.812" height="21.311" fill="none"/>
    </clipPath>
    <clipPath id="clip-path-9">
      <rect id="Rectangle_4808" data-name="Rectangle 4808" width="8.522" height="6.804" fill="none"/>
    </clipPath>
    <clipPath id="clip-path-10">
      <rect id="Rectangle_4809" data-name="Rectangle 4809" width="0.46" height="0.469" fill="none"/>
    </clipPath>
    <clipPath id="clip-path-11">
      <rect id="Rectangle_4810" data-name="Rectangle 4810" width="0.463" height="0.45" fill="none"/>
    </clipPath>
    <clipPath id="clip-path-12">
      <rect id="Rectangle_4811" data-name="Rectangle 4811" width="0.465" height="0.45" fill="none"/>
    </clipPath>
    <clipPath id="clip-path-21">
      <rect id="Rectangle_4820" data-name="Rectangle 4820" width="0.457" height="0.468" fill="none"/>
    </clipPath>
    <clipPath id="clip-path-26">
      <rect id="Rectangle_4825" data-name="Rectangle 4825" width="0.465" height="0.452" fill="none"/>
    </clipPath>
    <clipPath id="clip-path-29">
      <rect id="Rectangle_4828" data-name="Rectangle 4828" width="0.457" height="0.469" fill="none"/>
    </clipPath>
    <clipPath id="clip-path-32">
      <rect id="Rectangle_4831" data-name="Rectangle 4831" width="4.881" height="4.123" fill="none"/>
    </clipPath>
    <clipPath id="clip-path-33">
      <rect id="Rectangle_4832" data-name="Rectangle 4832" width="5.271" height="4.344" fill="none"/>
    </clipPath>
    <clipPath id="clip-path-34">
      <rect id="Rectangle_4833" data-name="Rectangle 4833" width="1.867" height="1.901" fill="none"/>
    </clipPath>
    <clipPath id="clip-path-35">
      <rect id="Rectangle_4834" data-name="Rectangle 4834" width="6.63" height="7.094" fill="none"/>
    </clipPath>
    <clipPath id="clip-path-36">
      <rect id="Rectangle_4835" data-name="Rectangle 4835" width="1.961" height="2.162" fill="none"/>
    </clipPath>
    <clipPath id="clip-path-37">
      <rect id="Rectangle_4836" data-name="Rectangle 4836" width="1.988" height="1.896" fill="none"/>
    </clipPath>
    <clipPath id="clip-path-38">
      <rect id="Rectangle_4837" data-name="Rectangle 4837" width="3.559" height="2.708" fill="none"/>
    </clipPath>
    <clipPath id="clip-path-39">
      <rect id="Rectangle_4838" data-name="Rectangle 4838" width="4.644" height="5.896" fill="none"/>
    </clipPath>
    <clipPath id="clip-path-40">
      <rect id="Rectangle_4839" data-name="Rectangle 4839" width="2.336" height="2.281" fill="none"/>
    </clipPath>
    <clipPath id="clip-path-41">
      <rect id="Rectangle_4840" data-name="Rectangle 4840" width="4.108" height="4.662" fill="none"/>
    </clipPath>
    <clipPath id="clip-path-42">
      <rect id="Rectangle_4841" data-name="Rectangle 4841" width="5.343" height="5.711" fill="none"/>
    </clipPath>
    <clipPath id="clip-path-43">
      <rect id="Rectangle_4842" data-name="Rectangle 4842" width="2.178" height="1.972" fill="none"/>
    </clipPath>
  </defs>
  <g id="Group_10983" data-name="Group 10983" transform="translate(-1)">
    <g id="Group_10982" data-name="Group 10982" transform="translate(1)" clip-path="url(#clip-path)">
      <g id="Group_10981" data-name="Group 10981">
        <g id="Group_10980" data-name="Group 10980" clip-path="url(#clip-path-2)">
          <path id="Path_11937" data-name="Path 11937" d="M214.251,554.37a20.993,20.993,0,0,0-4.293-.078c.457,6.158-9.017,1.223-12.433,7.329,1.961-4.275,6.912-13.069,12.162-7.956a21.323,21.323,0,0,1,3.2-.07q-3.31-1.921-6.453-4.162a23.946,23.946,0,0,0-4.855-.123c.467,6.166-9.017,1.229-12.43,7.335,1.961-4.275,6.912-13.069,12.162-7.955a21.284,21.284,0,0,1,4.109,0q-2.967-2.185-5.745-4.645a20.863,20.863,0,0,0-4.737-.132c.468,6.166-9.017,1.229-12.43,7.335,1.961-4.275,6.913-13.07,12.162-7.955a21.271,21.271,0,0,1,4.18.009c-2.707-2.436-4.859-5.611-8.788-5.919-1.04,6.093-8.95-1.408-13.712,3.524,2.953-3.71,9.923-10.594,13.6-4.209a21.432,21.432,0,0,1,3.2.885c-3.239-3.193-5.191-8-9.939-9.2-1.776,5.889-8.715-2.737-14,1.446,2.461-2.729,5.58-5.691,9.492-5.382,1.664.167,4.1.984,4.484,3.241a22.038,22.038,0,0,1,3.2,1.438q-2.383-3.372-4.468-6.979a24.039,24.039,0,0,0-4.251-2.408c-2.03,5.794-8.578-3.193-14.044.684,2.6-2.564,5.846-5.371,9.718-4.863,1.653.257,4.051,1.205,4.33,3.482a22.341,22.341,0,0,1,3.519,1.865c-2.363-3.991-2.833-6.246-5.5-10.584-4.619,2.9-5.364-8.038-11.8-8.1,4.929-.57,13.9.313,12.353,7.315,1.665,2.527,2.691,5.448,4.121,8.106a28.465,28.465,0,0,1,.155-3.832c-2.018-1.21-1.666-4.122-1.069-5.895,1.337-3.809,5.136-5.765,8.651-7.138-5.748,3.408-1.494,13.361-7.009,13.247-1.122,4.714,1.868,8.451,4.275,12.19a28.557,28.557,0,0,1,.1-4.724c-1.712-1.321-1.37-4.112-.808-5.851,1.273-3.824,4.908-5.858,8.389-7.28-5.569,3.421-1.478,14.176-7.026,13.442a36.937,36.937,0,0,0-.05,5.333A84.178,84.178,0,0,0,191.147,534a28.51,28.51,0,0,1,.114-4.4c-1.7-1.322-1.362-4.105-.8-5.849,1.273-3.824,4.908-5.858,8.388-7.28-5.569,3.421-1.477,14.165-7.021,13.443a27.3,27.3,0,0,0-.041,4.852q2.66,3.133,5.583,5.973a28.584,28.584,0,0,1,.094-4.839c-1.712-1.321-1.37-4.112-.808-5.851,1.273-3.824,4.908-5.858,8.388-7.28-5.567,3.421-1.477,14.175-7.026,13.441-1.072,5.917,1.525,6.563,5.539,9.981a28.227,28.227,0,0,1,.084-4.9c-1.679-1.3-1.342-4.055-.8-5.769,1.255-3.772,4.846-5.779,8.275-7.184-5.493,3.373-1.457,13.974-6.928,13.262a27.39,27.39,0,0,0-.019,5.1c1.9,1.482,3.855,2.858,5.864,4.153a28.6,28.6,0,0,1,.1-4.751c-1.712-1.322-1.37-4.112-.808-5.853,1.273-3.824,4.908-5.858,8.388-7.28-5.567,3.421-1.477,14.165-7.021,13.443a27.335,27.335,0,0,0-.041,4.842,76.888,76.888,0,0,0,33.09,11.6c.506.052.457.92-.05.868a77.373,77.373,0,0,1-29.438-9.344" transform="translate(-111.763 -342.226)" fill="rgba(11,192,100,0.4)"/>
          <path id="Path_11938" data-name="Path 11938" d="M684.457,454.394a20.962,20.962,0,0,0-.151-4.288c-6.132.78-1.7-8.934-7.989-12.014,4.377,1.73,13.428,6.2,8.6,11.712a21.264,21.264,0,0,1,.24,3.182q1.743-3.406,3.817-6.66a23.846,23.846,0,0,0-.135-4.851c-6.137.8-1.712-8.934-7.989-12.013,4.377,1.73,13.429,6.2,8.6,11.712a21.23,21.23,0,0,1,.217,4.1q2.026-3.071,4.337-5.979a20.823,20.823,0,0,0-.114-4.733c-6.138.8-1.712-8.935-7.989-12.013,4.377,1.729,13.429,6.2,8.6,11.712a21.241,21.241,0,0,1,.214,4.172c2.291-2.83,5.348-5.147,5.448-9.084-6.145-.713.931-9.009-4.25-13.494,3.865,2.75,11.115,9.339,4.929,13.343a21.44,21.44,0,0,1-.714,3.233c3.021-3.4,7.715-5.6,8.674-10.406-5.981-1.459,2.267-8.841-2.189-13.895,2.853,2.309,5.983,5.265,5.884,9.186-.078,1.668-.766,4.145-3,4.646a22.048,22.048,0,0,1-1.268,3.268q3.243-2.557,6.734-4.829a24.03,24.03,0,0,0,2.181-4.37c-5.9-1.719,2.739-8.73-1.435-13.977,2.7,2.456,5.679,5.547,5.377,9.438-.168,1.663-.99,4.105-3.248,4.507a22.345,22.345,0,0,1-1.672,3.609c3.861-2.569,6.091-3.159,10.286-6.044-3.139-4.454,7.749-5.774,7.469-12.2.832,4.889.427,13.883-6.653,12.714-2.437,1.8-5.3,2.974-7.882,4.543a28.55,28.55,0,0,1,3.837-.049c1.1-2.078,4.031-1.882,5.834-1.38,3.881,1.131,6.034,4.814,7.593,8.253-3.71-5.554-13.432-.781-13.612-6.29-4.771-.869-8.347,2.314-11.954,4.914a28.693,28.693,0,0,1,4.726-.149c1.229-1.772,4.037-1.579,5.8-1.116,3.888,1.066,6.115,4.59,7.721,7.983-3.712-5.374-14.245-.721-13.81-6.3a37.011,37.011,0,0,0-5.332.228,84.267,84.267,0,0,0-6.589,5.541,28.541,28.541,0,0,1,4.4-.114c1.23-1.769,4.036-1.577,5.8-1.114,3.888,1.066,6.116,4.59,7.722,7.983-3.715-5.375-14.235-.721-13.81-6.292a27.352,27.352,0,0,0-4.852.217q-2.989,2.821-5.672,5.888a28.687,28.687,0,0,1,4.84-.163c1.229-1.773,4.038-1.581,5.806-1.118,3.888,1.066,6.116,4.59,7.721,7.983-3.712-5.374-14.246-.721-13.81-6.3-5.97-.755-6.478,1.871-9.681,6.057a28.311,28.311,0,0,1,4.908-.176c1.214-1.745,3.981-1.554,5.724-1.1,3.836,1.053,6.033,4.529,7.617,7.874-3.623-5.287-14.038-.716-13.622-6.207a27.412,27.412,0,0,0-5.1.251c-1.378,1.969-2.651,4-3.84,6.07a28.658,28.658,0,0,1,4.754-.153c1.229-1.773,4.037-1.581,5.8-1.119,3.888,1.067,6.116,4.59,7.721,7.983-3.714-5.374-14.235-.721-13.81-6.292a27.353,27.353,0,0,0-4.841.217,76.728,76.728,0,0,0-9.826,33.633c-.026.507-.9.5-.87,0a77.2,77.2,0,0,1,7.774-29.869" transform="translate(-462.018 -274.284)" fill="rgba(11,192,100,0.4)"/>
          <path id="Path_11939" data-name="Path 11939" d="M638.939,579l-2.481-2.033,3.941-2.38,2.511,1.925.14-.194-2.428-1.863,3.866-2.334,2.576,1.977.14-.194-2.5-1.916,4.176-2.521,2.71,2.68.162-.176-2.662-2.632,3.744-2.26-.075.108,2.45,1.825.137-.2-2.413-1.794,3.175-1.917-.01.016,2.45,1.825.137-.2-2.373-1.764,3.935-2.377,2.334,1.736.137-.2-2.25-1.673,4.18-2.524,2.421,1.8.138-.2-2.336-1.738,5.034-3.04,2.408,1.792.137-.2-2.325-1.728,4.54-2.737,2.4,1.784.137-.2-2.313-1.721,4.475-2.7,2.444,1.817.137-.2-2.358-1.754,3.229-1.949,1.731,1.2.13-.2-1.637-1.128,4.012-2.422,1.275.933.136-.2-1.189-.869,3.6-2.175,1.457.958.126-.2-1.355-.891,3.7-2.236,1.255.918.136-.2-1.17-.855,3.785-2.281,1.053.7.128-.2-.954-.639,2.853-1.722,1.662.468.062-.228-1.439-.406,2.837-1.711,1.339.377.062-.228-1.116-.315,2.373-1.432,1.171.382.071-.228-.968-.316,2.9-1.778-.239-.419-2.9,1.752.205-1.054-.228-.048-.247,1.267-2.364,1.428.275-1.169-.228-.058-.329,1.4-2.825,1.711.348-1.483-.228-.057-.4,1.711-2.853,1.722-.079-1.14-.235.016.088,1.254-3.779,2.281-.155-1.415-.228.026.168,1.522-3.621,2.187-.169-1.537-.228.026.18,1.642h.007l-3.681,2.221-.153-1.392-.228.027.164,1.5-3.995,2.415-.158-1.9-.234.021.168,2.01-3.227,1.948-.333-2.83-.228.029.342,2.935-4.466,2.7-.324-2.745-.228.027.337,2.851L670,556.17l-.322-2.737-.228.029.334,2.836-5.022,3.035-.321-2.716-.228.029.332,2.821-4.172,2.519-.3-2.58-.228.029.316,2.685-3.927,2.372-.32-2.712-.228.029.332,2.817-3.152,1.9-.323-2.737-.228.029.336,2.851L649,568.876l-.874-3.372-.228.062.89,3.437-4.133,2.5-.377-2.829-.228.032.389,2.93-3.858,2.33-.362-2.72-.228.032.374,2.82-4.027,2.431-.382-2.878-.228.032.4,2.978-19.7,11.845.239.419L636.241,577.1l2.552,2.091Z" transform="translate(-421.102 -363.311)" fill="rgba(11,192,100,0.4)"/>
          <path id="Path_11940" data-name="Path 11940" d="M903.182,513.364c-1.124-1.18-.108-8.774,2.069-10.1-1.066,2.153-.462,9.009-2.069,10.1" transform="translate(-616.678 -343.931)" fill="rgba(11,192,100,0.4)"/>
          <path id="Path_11941" data-name="Path 11941" d="M908.911,510.739c-.9-1.368,1.417-8.649,3.79-9.546-1.423,1.919-2.02,8.772-3.79,9.546" transform="translate(-620.772 -342.513)" fill="rgba(11,192,100,0.4)"/>
          <path id="Path_11942" data-name="Path 11942" d="M912.711,515.75c-.414-1.6,4.109-7.675,6.637-7.716-1.958,1.327-4.716,7.587-6.637,7.716" transform="translate(-623.486 -347.185)" fill="rgba(11,192,100,0.4)"/>
          <path id="Path_11943" data-name="Path 11943" d="M895.307,514.106c-1.3-1.368-.124-10.143,2.4-11.671-1.231,2.488-.535,10.412-2.4,11.671" transform="translate(-611.25 -343.361)" fill="rgba(11,192,100,0.4)"/>
          <path id="Path_11944" data-name="Path 11944" d="M885.7,516.279c-1.429-1.5-.137-11.151,2.625-12.829-1.355,2.737-.588,11.446-2.625,12.829" transform="translate(-604.651 -344.053)" fill="rgba(11,192,100,0.4)"/>
          <path id="Path_11945" data-name="Path 11945" d="M874.336,519.588c-1.609-1.688-.154-12.557,2.967-14.449-1.526,3.079-.663,12.886-2.967,14.449" transform="translate(-596.837 -345.209)" fill="rgba(11,192,100,0.4)"/>
          <path id="Path_11946" data-name="Path 11946" d="M861.59,524.037c-1.774-1.861-.17-13.847,3.266-15.932-1.682,3.4-.73,14.214-3.266,15.932" transform="translate(-588.087 -347.236)" fill="rgba(11,192,100,0.4)"/>
          <path id="Path_11947" data-name="Path 11947" d="M849.214,530.091c-1.863-1.953-.179-14.535,3.424-16.725-1.766,3.565-.767,14.921-3.424,16.725" transform="translate(-579.604 -350.831)" fill="rgba(11,192,100,0.4)"/>
          <path id="Path_11948" data-name="Path 11948" d="M836.78,537.644c-1.861-1.954-.178-14.535,3.424-16.725-1.766,3.566-.767,14.921-3.424,16.725" transform="translate(-571.109 -355.993)" fill="rgba(11,192,100,0.4)"/>
          <path id="Path_11949" data-name="Path 11949" d="M823.329,539.973c-2.054-2.156-.2-16.048,3.786-18.465-1.949,3.935-.847,16.474-3.786,18.465" transform="translate(-561.866 -356.399)" fill="rgba(11,192,100,0.4)"/>
          <path id="Path_11950" data-name="Path 11950" d="M812,542.9c-2.054-2.156-.2-16.048,3.786-18.465-1.949,3.935-.847,16.474-3.786,18.465" transform="translate(-554.126 -358.396)" fill="rgba(11,192,100,0.4)"/>
          <path id="Path_11951" data-name="Path 11951" d="M717.047,591.663c-2.77-.993-7.924-15.758-5.4-19.75-.047,4.424,7.174,16.618,5.4,19.75" transform="translate(-485.686 -390.842)" fill="#d4e8f7"/>
          <path id="Path_11952" data-name="Path 11952" d="M704.319,599.262c-2.77-.993-7.4-14.676-4.879-18.668-.047,4.425,6.649,15.536,4.879,18.668" transform="translate(-477.315 -396.775)" fill="#d4e8f7"/>
          <path id="Path_11953" data-name="Path 11953" d="M691.658,609.155c-2.77-.993-7.58-14.989-5.06-18.982-.047,4.424,6.829,15.852,5.06,18.982" transform="translate(-468.556 -403.321)" fill="#d4e8f7"/>
          <path id="Path_11954" data-name="Path 11954" d="M679.2,619.528c-2.77-.993-7.465-14.791-4.945-18.783-.047,4.424,6.716,15.651,4.945,18.783" transform="translate(-460.118 -410.546)" fill="#d4e8f7"/>
          <path id="Path_11955" data-name="Path 11955" d="M666.435,629.612c-2.77-.993-7.1-14.3-4.577-18.3-.047,4.424,6.347,15.167,4.577,18.3" transform="translate(-451.619 -417.771)" fill="#d4e8f7"/>
          <path id="Path_11956" data-name="Path 11956" d="M797.092,549.4c-2.431-2.55-.228-18.973,4.475-21.831-2.306,4.654-1,19.477-4.475,21.831" transform="translate(-543.837 -360.541)" fill="rgba(11,192,100,0.4)"/>
          <path id="Path_11957" data-name="Path 11957" d="M764.843,564.6c-2.6-2.367-.969-19.707,3.531-22.9-1.981,4.81-.228,20.3-3.531,22.9" transform="translate(-521.643 -370.196)" fill="rgba(11,192,100,0.4)"/>
          <path id="Path_11958" data-name="Path 11958" d="M781.283,554.073c-2.576-2.448-1.153-19.138,3.461-22.265-2.1,4.816-.068,19.711-3.461,22.265" transform="translate(-532.851 -363.435)" fill="rgba(11,192,100,0.4)"/>
          <path id="Path_11959" data-name="Path 11959" d="M749.1,568.581c-2.874-2.066-2.926-20.391,1.231-24.136-1.447,5.067,1.792,21.13-1.231,24.136" transform="translate(-510.341 -372.071)" fill="rgba(11,192,100,0.4)"/>
          <path id="Path_11960" data-name="Path 11960" d="M733.611,581.392c-3.029-1.815-5.156-18.434-1.314-22.522-1.035,5.174,4.085,19.273,1.314,22.522" transform="translate(-498.841 -381.929)" fill="rgba(11,192,100,0.4)"/>
          <path id="Path_11961" data-name="Path 11961" d="M906.661,539.184c.457,1.583,7.41,4.341,9.587,3.021-2.347-.082-7.884-3.941-9.587-3.021" transform="translate(-619.37 -368.379)" fill="rgba(11,192,100,0.4)"/>
          <path id="Path_11962" data-name="Path 11962" d="M912.3,535.284c.685,1.5,7.946,3.173,9.91,1.534-2.332.276-8.358-2.7-9.91-1.534" transform="translate(-623.221 -365.623)" fill="rgba(11,192,100,0.4)"/>
          <path id="Path_11963" data-name="Path 11963" d="M913.248,529.444c1.141,1.162,8.513.143,9.8-2.1-2.092,1.091-8.742.445-9.8,2.1" transform="translate(-623.871 -360.386)" fill="rgba(11,192,100,0.4)"/>
          <path id="Path_11964" data-name="Path 11964" d="M914.027,520.138c1.471.657,7.972-3.057,8.383-5.629-1.561,1.8-7.977,3.691-8.383,5.629" transform="translate(-624.402 -351.613)" fill="rgba(11,192,100,0.4)"/>
          <path id="Path_11965" data-name="Path 11965" d="M899.094,544.206c.531,1.825,8.56,5.018,11.082,3.492-2.712-.094-9.114-4.556-11.082-3.492" transform="translate(-614.201 -371.796)" fill="rgba(11,192,100,0.4)"/>
          <path id="Path_11966" data-name="Path 11966" d="M891,550.622c.583,2.012,9.415,5.518,12.183,3.839-2.981-.1-10.019-5.007-12.183-3.839" transform="translate(-608.674 -376.172)" fill="rgba(11,192,100,0.4)"/>
          <path id="Path_11967" data-name="Path 11967" d="M879.8,557.382c.657,2.265,10.6,6.214,13.72,4.322-3.358-.114-11.282-5.639-13.72-4.322" transform="translate(-601.018 -380.774)" fill="rgba(11,192,100,0.4)"/>
          <path id="Path_11968" data-name="Path 11968" d="M867.3,565.159c.725,2.5,11.693,6.853,15.129,4.767-3.7-.128-12.441-6.219-15.129-4.767" transform="translate(-592.482 -386.073)" fill="rgba(11,192,100,0.4)"/>
          <path id="Path_11969" data-name="Path 11969" d="M853.966,571.812c.76,2.623,12.274,7.194,15.882,5-3.886-.135-13.06-6.529-15.882-5" transform="translate(-583.373 -390.612)" fill="rgba(11,192,100,0.4)"/>
          <path id="Path_11970" data-name="Path 11970" d="M841.433,578.978c.76,2.623,12.274,7.194,15.882,5-3.886-.135-13.06-6.529-15.882-5" transform="translate(-574.812 -395.51)" fill="rgba(11,192,100,0.4)"/>
          <path id="Path_11971" data-name="Path 11971" d="M829.833,587.449c.84,2.9,13.551,7.942,17.534,5.524-4.29-.148-14.418-7.207-17.534-5.524" transform="translate(-566.887 -401.282)" fill="rgba(11,192,100,0.4)"/>
          <path id="Path_11972" data-name="Path 11972" d="M821.868,596.249c.839,2.9,13.551,7.943,17.534,5.524-4.291-.148-14.418-7.207-17.534-5.524" transform="translate(-561.445 -407.296)" fill="rgba(11,192,100,0.4)"/>
          <path id="Path_11973" data-name="Path 11973" d="M737.557,647.292c-.5,2.974,9.567,14.761,14.181,14.423-3.785-2.1-10.661-14.5-14.181-14.423" transform="translate(-503.838 -442.355)" fill="rgba(11,192,100,0.4)"/>
          <path id="Path_11974" data-name="Path 11974" d="M726.1,657.657c-.5,2.975,9,13.6,13.618,13.262-3.785-2.1-10.1-13.343-13.618-13.262" transform="translate(-496.015 -449.439)" fill="rgba(11,192,100,0.4)"/>
          <path id="Path_11975" data-name="Path 11975" d="M711.309,664.174c-.5,2.975,9.079,14.078,13.7,13.739-3.785-2.1-10.175-13.819-13.7-13.739" transform="translate(-485.906 -453.892)" fill="#d4e8f7"/>
          <path id="Path_11976" data-name="Path 11976" d="M696.912,669.737c-.5,2.974,8.965,13.88,13.582,13.541-3.785-2.1-10.061-13.621-13.582-13.541" transform="translate(-476.072 -457.694)" fill="#d4e8f7"/>
          <path id="Path_11977" data-name="Path 11977" d="M682.714,677.516c-.5,2.975,8.73,13.312,13.346,12.973-3.785-2.1-9.826-13.053-13.346-12.973" transform="translate(-466.372 -463.01)" fill="#d4e8f7"/>
          <path id="Path_11978" data-name="Path 11978" d="M803.116,602.621c.993,3.421,16.022,9.39,20.73,6.532-5.073-.176-17.048-8.522-20.73-6.532" transform="translate(-548.635 -411.618)" fill="rgba(11,192,100,0.4)"/>
          <path id="Path_11979" data-name="Path 11979" d="M772.891,622.95c.757,3.486,16.289,10.407,21.183,7.9-5.049-.543-17.373-9.616-21.183-7.9" transform="translate(-527.988 -425.574)" fill="rgba(11,192,100,0.4)"/>
          <path id="Path_11980" data-name="Path 11980" d="M790.99,613.77c.837,3.506,15.717,10.3,20.608,7.655-5.112-.438-16.795-9.474-20.608-7.655" transform="translate(-540.352 -419.282)" fill="rgba(11,192,100,0.4)"/>
          <path id="Path_11981" data-name="Path 11981" d="M760.457,632.613c.368,3.589,15.926,12.5,21.122,10.568-5.009-1.148-17.1-11.836-21.122-10.568" transform="translate(-519.494 -432.254)" fill="rgba(11,192,100,0.4)"/>
          <path id="Path_11982" data-name="Path 11982" d="M746.448,639.555c.079,3.607,13.182,13.563,18.516,12.079-4.9-1.57-14.408-13-18.516-12.079" transform="translate(-509.924 -437.033)" fill="rgba(11,192,100,0.4)"/>
          <path id="Path_11983" data-name="Path 11983" d="M315.626,481.356l-1.742,2.691-2.811-3.649,1.632-2.706-.209-.114-1.58,2.623-2.757-3.574,1.675-2.78-.209-.114L308,476.426l-2.979-3.861,2.359-2.991-.192-.143-2.318,2.939-2.67-3.461.114.063,1.536-2.639-.211-.114-1.512,2.6-2.264-2.937.016.009,1.536-2.64-.211-.114-1.484,2.555-2.808-3.639,1.463-2.509-.211-.114-1.41,2.421-2.981-3.866,1.517-2.606-.211-.114-1.464,2.516-3.592-4.656,1.51-2.594-.211-.114-1.457,2.5-3.238-4.2,1.5-2.582-.211-.114-1.449,2.491-3.2-4.138,1.531-2.631-.211-.114-1.478,2.539-2.3-2.986.993-1.853-.215-.107-.938,1.752-2.861-3.709.783-1.368-.211-.114-.73,1.277-2.568-3.33.788-1.554-.217-.1-.733,1.446-2.641-3.421.772-1.351-.211-.114-.719,1.254-2.7-3.5.582-1.127-.217-.1-.527,1.02-2.035-2.639.278-1.7-.24-.034-.242,1.475-2.024-2.623.228-1.368-.24-.035-.187,1.14-1.693-2.194.249-1.205-.237-.044-.205,1-2.067-2.68-.389.284,2.068,2.682-1.072-.084-.022.235,1.287.1,1.687,2.185-1.193-.141-.031.234,1.426.169,2.014,2.613-1.511-.179-.031.228,1.744.206,2.034,2.637-1.124.206.043.228,1.243-.228,2.7,3.494-1.39.314.052.228,1.5-.342,2.583,3.348-1.51.342.052.228,1.612-.365v.009l2.625,3.4-1.37.309.052.228,1.472-.333,2.853,3.7-1.866.371.047.228,1.98-.393,2.3,2.983-2.777.65.055.228,2.88-.674,3.185,4.131-2.694.631.055.228,2.8-.655,3.231,4.19-2.68.628.055.228,2.783-.651,3.584,4.647-2.665.624.055.228,2.768-.649,2.975,3.858-2.531.593.055.228,2.634-.616,2.8,3.631-2.662.623.055.228,2.763-.648,2.248,2.914-2.69.629.055.228,2.794-.655,2.606,3.379-3.255,1.248.087.219,3.318-1.273,2.948,3.823-2.771.692.058.228,2.87-.717,2.752,3.568-2.664.666.058.228,2.762-.691,2.872,3.723-2.819.7.058.228,2.917-.729,14,18.146.389-.284-13.964-18.1,1.792-2.769Z" transform="translate(-177.915 -283.787)" fill="rgba(11,192,100,0.4)"/>
          <path id="Path_11984" data-name="Path 11984" d="M242.864,423.193c-1.047,1.254-8.713,1.1-10.272-.912,2.261.815,9.01-.557,10.272.912" transform="translate(-158.89 -288.582)" fill="rgba(11,192,100,0.4)"/>
          <path id="Path_11985" data-name="Path 11985" d="M239.254,414.676c-1.255,1.049-8.76-.431-9.922-2.687,2.07,1.2,8.951,1.016,9.922,2.687" transform="translate(-156.664 -281.551)" fill="rgba(11,192,100,0.4)"/>
          <path id="Path_11986" data-name="Path 11986" d="M243.151,404.6c-1.541.592-8.1-3.211-8.422-5.718,1.541,1.795,8.077,3.826,8.422,5.718" transform="translate(-160.352 -272.595)" fill="rgba(11,192,100,0.4)"/>
          <path id="Path_11987" data-name="Path 11987" d="M244.394,430.088c-1.209,1.444-10.072,1.268-11.877-1.059,2.614.943,10.416-.643,11.877,1.059" transform="translate(-158.841 -293.197)" fill="rgba(11,192,100,0.4)"/>
          <path id="Path_11988" data-name="Path 11988" d="M247.563,438.766c-1.33,1.587-11.071,1.394-13.056-1.164,2.873,1.037,11.45-.707,13.056,1.164" transform="translate(-160.199 -299.054)" fill="rgba(11,192,100,0.4)"/>
          <path id="Path_11989" data-name="Path 11989" d="M252.04,448.815c-1.5,1.788-12.47,1.569-14.7-1.311,3.235,1.168,12.9-.8,14.7,1.311" transform="translate(-162.133 -305.821)" fill="rgba(11,192,100,0.4)"/>
          <path id="Path_11990" data-name="Path 11990" d="M257.807,460.178c-1.65,1.972-13.751,1.731-16.207-1.446,3.568,1.287,14.218-.877,16.207,1.446" transform="translate(-165.041 -313.494)" fill="rgba(11,192,100,0.4)"/>
          <path id="Path_11991" data-name="Path 11991" d="M265.169,471.369c-1.733,2.069-14.434,1.817-17.018-1.518,3.745,1.351,14.925-.92,17.018,1.518" transform="translate(-169.52 -321.093)" fill="rgba(11,192,100,0.4)"/>
          <path id="Path_11992" data-name="Path 11992" d="M274.078,482.873c-1.733,2.07-14.434,1.817-17.018-1.518,3.745,1.351,14.924-.921,17.018,1.518" transform="translate(-175.606 -328.955)" fill="rgba(11,192,100,0.4)"/>
          <path id="Path_11993" data-name="Path 11993" d="M277.808,495.038c-1.913,2.281-15.936,2.006-18.789-1.675,4.134,1.492,16.477-1.017,18.789,1.675" transform="translate(-176.945 -337.162)" fill="rgba(11,192,100,0.4)"/>
          <path id="Path_11994" data-name="Path 11994" d="M281.99,505.968c-1.913,2.281-15.935,2.006-18.789-1.676,4.134,1.492,16.477-1.016,18.789,1.676" transform="translate(-179.801 -344.63)" fill="rgba(11,192,100,0.4)"/>
          <path id="Path_11995" data-name="Path 11995" d="M342.112,586.575c-.676,2.861-14.777,9.644-19.032,7.592,4.4-.456,15.717-9,19.032-7.592" transform="translate(-220.707 -400.756)" fill="rgba(11,192,100,0.4)"/>
          <path id="Path_11996" data-name="Path 11996" d="M351.082,599.621c-.676,2.861-13.759,9-18.014,6.948,4.4-.456,14.7-8.353,18.014-6.948" transform="translate(-227.53 -409.661)" fill="rgba(11,192,100,0.4)"/>
          <path id="Path_11997" data-name="Path 11997" d="M362.345,610.669c-.675,2.861-14.051,9.216-18.306,7.163,4.4-.456,14.991-8.568,18.306-7.163" transform="translate(-235.025 -417.216)" fill="#d4e8f7"/>
          <path id="Path_11998" data-name="Path 11998" d="M374.053,622.133c-.676,2.861-13.867,9.08-18.122,7.027,4.4-.456,14.806-8.432,18.122-7.027" transform="translate(-243.149 -425.049)" fill="#d4e8f7"/>
          <path id="Path_11999" data-name="Path 11999" d="M385.5,634.49c-.676,2.861-13.423,8.659-17.678,6.606,4.4-.456,14.365-8.011,17.678-6.606" transform="translate(-251.273 -433.488)" fill="#d4e8f7"/>
          <path id="Path_12000" data-name="Path 12000" d="M289.931,518.238c-2.262,2.7-18.841,2.371-22.214-1.982,4.888,1.764,19.481-1.2,22.214,1.982" transform="translate(-182.886 -352.807)" fill="rgba(11,192,100,0.4)"/>
          <path id="Path_12001" data-name="Path 12001" d="M308.838,549.367c-2.061,2.851-19.487,3.184-23.169-.925,5.007,1.424,20.212-2.062,23.169.925" transform="translate(-195.149 -374.579)" fill="rgba(11,192,100,0.4)"/>
          <path id="Path_12002" data-name="Path 12002" d="M296.533,534.268c-2.146,2.834-18.9,3.307-22.531-.925,5.022,1.543,19.608-2.155,22.531.925" transform="translate(-187.18 -364.249)" fill="rgba(11,192,100,0.4)"/>
          <path id="Path_12003" data-name="Path 12003" d="M314.936,563.556c-1.731,3.086-19.949,5.2-24.142,1.5,5.2.864,20.81-4.161,24.142-1.5" transform="translate(-198.651 -384.594)" fill="rgba(11,192,100,0.4)"/>
          <path id="Path_12004" data-name="Path 12004" d="M329.7,575.589c-1.464,3.213-17.751,7.2-22.247,3.844,5.262.445,18.7-6.228,22.247-3.844" transform="translate(-210.031 -393.001)" fill="rgba(11,192,100,0.4)"/>
          <path id="Path_12005" data-name="Path 12005" d="M268.537,400.938c1.523-.634,3.482-7.846,1.923-9.859.184,2.339-3.03,8.271-1.923,9.859" transform="translate(-183.288 -267.262)" fill="rgba(11,192,100,0.4)"/>
          <path id="Path_12006" data-name="Path 12006" d="M263.887,395.413c1.412-.844,2.259-8.246.407-10.012.536,2.281-1.745,8.6-.407,10.012" transform="translate(-179.978 -263.381)" fill="rgba(11,192,100,0.4)"/>
          <path id="Path_12007" data-name="Path 12007" d="M255.932,395.8c1.027-1.262-.817-8.467-3.19-9.5,1.32,1.955,1.428,8.628,3.19,9.5" transform="translate(-172.657 -263.995)" fill="rgba(11,192,100,0.4)"/>
          <path id="Path_12008" data-name="Path 12008" d="M246.945,399.116c.487-1.535-3.94-7.57-6.543-7.687,1.968,1.348,4.565,7.5,6.543,7.687" transform="translate(-164.227 -267.5)" fill="rgba(11,192,100,0.4)"/>
          <path id="Path_12009" data-name="Path 12009" d="M274.35,404.565c1.76-.733,4.027-9.07,2.222-11.4.212,2.7-3.5,9.562-2.222,11.4" transform="translate(-187.234 -268.689)" fill="rgba(11,192,100,0.4)"/>
          <path id="Path_12010" data-name="Path 12010" d="M281.616,409.435c1.935-.806,4.426-9.97,2.444-12.527.228,2.972-3.85,10.511-2.444,12.527" transform="translate(-192.18 -271.245)" fill="rgba(11,192,100,0.4)"/>
          <path id="Path_12011" data-name="Path 12011" d="M289.562,416.39c2.179-.912,4.984-11.228,2.752-14.109.263,3.347-4.337,11.837-2.752,14.109" transform="translate(-197.582 -274.917)" fill="rgba(11,192,100,0.4)"/>
          <path id="Path_12012" data-name="Path 12012" d="M298.668,424.8c2.4-1,5.5-12.381,3.034-15.558.291,3.69-4.781,13.053-3.034,15.558" transform="translate(-203.779 -279.673)" fill="rgba(11,192,100,0.4)"/>
          <path id="Path_12013" data-name="Path 12013" d="M306.768,435.624c2.522-1.05,5.769-13,3.185-16.332.3,3.877-5.022,13.7-3.185,16.332" transform="translate(-209.3 -286.542)" fill="rgba(11,192,100,0.4)"/>
          <path id="Path_12014" data-name="Path 12014" d="M315.3,447.269c2.522-1.05,5.769-13,3.185-16.332.3,3.877-5.022,13.7-3.185,16.332" transform="translate(-215.129 -294.5)" fill="rgba(11,192,100,0.4)"/>
          <path id="Path_12015" data-name="Path 12015" d="M324.993,454.166c2.785-1.16,6.37-14.348,3.516-18.031.337,4.276-5.541,15.127-3.516,18.031" transform="translate(-221.723 -298.053)" fill="rgba(11,192,100,0.4)"/>
          <path id="Path_12016" data-name="Path 12016" d="M334.635,461.088c2.785-1.16,6.37-14.348,3.516-18.031.337,4.276-5.541,15.128-3.516,18.031" transform="translate(-228.309 -302.783)" fill="rgba(11,192,100,0.4)"/>
          <path id="Path_12017" data-name="Path 12017" d="M395.186,544.149c3.014.156,13.6-11.162,12.744-15.705-1.659,3.991-13.219,12.219-12.744,15.705" transform="translate(-269.955 -361.136)" fill="#d4e8f7"/>
          <path id="Path_12018" data-name="Path 12018" d="M406.773,555.849c3.014.156,12.509-10.472,11.652-15.016-1.66,3.991-12.128,11.531-11.652,15.016" transform="translate(-277.87 -369.599)" fill="#d4e8f7"/>
          <path id="Path_12019" data-name="Path 12019" d="M414.919,569.534c3.014.156,12.976-10.606,12.119-15.146-1.659,3.991-12.595,11.659-12.119,15.146" transform="translate(-283.435 -378.865)" fill="#d4e8f7"/>
          <path id="Path_12020" data-name="Path 12020" d="M422.068,583.5c3.014.156,12.792-10.466,11.935-15.01-1.66,3.991-12.411,11.524-11.935,15.01" transform="translate(-288.318 -388.505)" fill="#d4e8f7"/>
          <path id="Path_12021" data-name="Path 12021" d="M431.4,597.375c3.014.156,12.253-10.169,11.4-14.711-1.66,3.991-11.87,11.226-11.4,14.711" transform="translate(-294.69 -398.188)" fill="#d4e8f7"/>
          <path id="Path_12022" data-name="Path 12022" d="M343.015,471.894c3.293-1.368,7.533-16.964,4.158-21.317.4,5.057-6.552,17.886-4.158,21.317" transform="translate(-233.981 -307.922)" fill="rgba(11,192,100,0.4)"/>
          <path id="Path_12023" data-name="Path 12023" d="M366.7,498.354c3.382-1.14,8.513-17.345,5.466-21.921.03,5.075-7.6,18.332-5.466,21.921" transform="translate(-250.245 -325.592)" fill="rgba(11,192,100,0.4)"/>
          <path id="Path_12024" data-name="Path 12024" d="M355.521,482.69c3.391-1.226,8.469-16.764,5.289-21.325.142,5.125-7.533,17.742-5.289,21.325" transform="translate(-242.588 -315.297)" fill="rgba(11,192,100,0.4)"/>
          <path id="Path_12025" data-name="Path 12025" d="M377.826,509.128c3.528-.77,10.636-17.22,8.129-22.161-.578,5.1-9.843,18.314-8.129,22.161" transform="translate(-257.958 -332.79)" fill="#d4e8f7"/>
          <path id="Path_12026" data-name="Path 12026" d="M386.37,527.494c3.578-.485,12-14.616,9.93-19.745-1.009,5.043-11.3,15.771-9.93,19.745" transform="translate(-263.855 -346.993)" fill="#d4e8f7"/>
          <path id="Path_12027" data-name="Path 12027" d="M519.624,439.851l-10.4,9.51-12.1-9.73a212.875,212.875,0,0,1,22.493.219" transform="translate(-339.606 -300.309)" fill="#f9cbcb"/>
          <path id="Path_12028" data-name="Path 12028" d="M518.846,398.42c-6.89,9.281-15.656,12.113-23.524,0,.749-4.54,3.141-19.045,3.843-23.336l15.469-.1Z" transform="translate(-338.372 -256.261)" fill="#f9cbcb"/>
          <path id="Path_12029" data-name="Path 12029" d="M524.878,398.42c-5.271-5.474-5.666-18.389-20.727-16.971l1.045-6.365,15.468-.1Z" transform="translate(-344.403 -256.261)" fill="#ebb0b0"/>
          <path id="Path_12030" data-name="Path 12030" d="M504.886,208.362c-2.583,48.037-52.539,46.173-55.864,0,.668-40.749,55.2-40.744,55.864,0" transform="translate(-306.742 -121.512)" fill="#f9cbcb"/>
          <path id="Path_12031" data-name="Path 12031" d="M534.352,176.465c-.442,0-.872.05-1.309.073,36.45,1.683,32.587,62.733.887,66.891,34.5-.429,39.367-66.666.422-66.964" transform="translate(-364.139 -120.595)" fill="#ebb0b0"/>
          <path id="Path_12032" data-name="Path 12032" d="M632.485,263.433v.068a.123.123,0,0,0-.034-.1Z" transform="translate(-432.049 -180.006)" fill="#754c24"/>
          <path id="Path_12033" data-name="Path 12033" d="M505.494,161.067s1.484,18.7-14.326,22.832c0-.375-.008-.766-.019-1.134-5.744-4.307-6.331-10.5-7.1-14.711-1.255-8.542-16.778-.993-31.957-11.276.943,12.222-8.987,19.067-14.351,23.857a31.159,31.159,0,0,0-.36,5c-6.355-6.061-12.621-32.965,9.573-37.031,14.395-25.554,46.915,17.5,60.614-7.835,0,0-.385,19.169-8.56,22.256,0,0,4.753.192,6.485-1.961" transform="translate(-294.723 -95.789)" fill="#252e51"/>
          <path id="Path_12034" data-name="Path 12034" d="M460.891,523.867H329.453s6.848-58.946,12.734-67.169c5.9-7.4,29.148-13.814,40.4-16.628l12.1,9.73,10.4-9.51c12.865,1.556,32.665,6.228,39.623,14.352,5.887,8.239,16.191,69.231,16.191,69.231" transform="translate(-225.061 -300.738)" fill="#3d4547"/>
          <path id="Path_12035" data-name="Path 12035" d="M512.308,442.727c-3.719,4.091-5.549,8.318-5.24,12.7-2.385-1.086-7.834-3.547-10.272-4.645-2.65,1.317-7.989,3.963-10.628,5.27a38.67,38.67,0,0,0-7.032-12.607l4.186-2.958,1.516-.416,12.1,9.73,10.4-9.51c.4-.29,4.578,2.281,4.974,2.438" transform="translate(-327.314 -300.738)" fill="#646a6c"/>
          <path id="Path_12036" data-name="Path 12036" d="M498.712,179.414h-2.3c5.646-49.9-62.946-49.869-57.286,0h-2.3c-5.707-52.93,67.617-52.893,61.892,0" transform="translate(-298.19 -95.492)" fill="#323536"/>
          <path id="Path_12037" data-name="Path 12037" d="M433.371,253.706c-.047-3.193,4.97-3.193,4.923,0,.047,3.193-4.969,3.193-4.923,0" transform="translate(-296.05 -171.746)" fill="#838889"/>
          <path id="Path_12038" data-name="Path 12038" d="M621.428,253.706c-.047-3.193,4.97-3.193,4.923,0,.047,3.193-4.969,3.193-4.923,0" transform="translate(-424.518 -171.746)" fill="#838889"/>
          <path id="Path_12039" data-name="Path 12039" d="M464.579,323.564h.018c-.083-.2-.727-2.772-.8-3.059a2.29,2.29,0,0,0-2,1.445c-13.534,3.431-24.267.148-23.675-13.9l-2.3-.127c-1.314,16.048,13.729,20.159,26.719,16.213a2.387,2.387,0,0,0,2.216.129Z" transform="translate(-297.671 -210.429)" fill="#323536"/>
          <g id="Group_10859" data-name="Group 10859" transform="translate(138.864 97.601)">
            <g id="Group_10858" data-name="Group 10858">
              <g id="Group_10857" data-name="Group 10857" clip-path="url(#clip-path-3)">
                <path id="Path_12040" data-name="Path 12040" d="M466.285,338.76h.018c-.083-.2-.727-2.772-.8-3.059l-.043.011c.086.325.509,2.023.609,2.3h-.018l.178.7a2.389,2.389,0,0,1-2.216-.128c-9.732,2.708-22.278,2.053-25.77-8.43,3.07,11.081,16.013,12,26.008,9.174a2.388,2.388,0,0,0,2.216.129Z" transform="translate(-438.239 -323.221)" fill="#fff"/>
                <path id="Path_12041" data-name="Path 12041" d="M442.414,308.271a17.576,17.576,0,0,0,.869,6.219,18.774,18.774,0,0,1-.606-6.2Z" transform="translate(-441.086 -308.271)" fill="#ccc"/>
              </g>
            </g>
          </g>
          <path id="Path_12042" data-name="Path 12042" d="M410.408,277.676c0,4.324,3.134,7.829,7,7.829V269.847c-3.866,0-7,3.506-7,7.829" transform="translate(-280.363 -184.412)" fill="#006c35"/>
          <g id="Group_10862" data-name="Group 10862" transform="translate(130.045 90.989)">
            <g id="Group_10861" data-name="Group 10861">
              <g id="Group_10860" data-name="Group 10860" clip-path="url(#clip-path-4)">
                <path id="Path_12043" data-name="Path 12043" d="M410.684,287.972h0c0-.2.014-.39.026-.584a8.7,8.7,0,0,0-.3,2.281c0,4.324,3.134,7.829,7,7.829v-1.711c-3.737-.163-6.724-3.593-6.724-7.814" transform="translate(-410.408 -287.388)" fill="#ccc"/>
              </g>
            </g>
          </g>
          <path id="Path_12044" data-name="Path 12044" d="M495.445,167.167a2.584,2.584,0,0,1-2.526-2.731,27.3,27.3,0,0,0-54.373.493,2.5,2.5,0,0,1-2.48,2.237A2.553,2.553,0,0,1,433.62,164a32.293,32.293,0,0,1,64.32.57,2.489,2.489,0,0,1-2.495,2.6" transform="translate(-296.179 -92.193)" fill="#006c35"/>
          <g id="Group_10865" data-name="Group 10865" transform="translate(138.468 43.284)">
            <g id="Group_10864" data-name="Group 10864">
              <g id="Group_10863" data-name="Group 10863" clip-path="url(#clip-path-5)">
                <path id="Path_12045" data-name="Path 12045" d="M466.272,149.37a27.328,27.328,0,0,0-27.2,24.964,2.51,2.51,0,0,1-2.077,2.281,2.511,2.511,0,0,0,3.907-1.87c1.141-15.72,16.507-27.591,32.186-24.5a27.27,27.27,0,0,0-6.816-.867" transform="translate(-436.992 -145.363)" fill="#ccc"/>
                <path id="Path_12046" data-name="Path 12046" d="M580.413,165.728a32.341,32.341,0,0,0-26.119-29.016,32.342,32.342,0,0,1,24.291,28.61,2.481,2.481,0,0,1-2.074,2.637,2.511,2.511,0,0,0,3.9-2.229" transform="translate(-517.125 -136.712)" fill="#ccc"/>
              </g>
            </g>
          </g>
          <path id="Path_12047" data-name="Path 12047" d="M432,260.8a4.238,4.238,0,0,0-4.24,4.237v12.917a4.24,4.24,0,0,0,8.48,0V265.033A4.238,4.238,0,0,0,432,260.8" transform="translate(-292.217 -178.227)" fill="#006c35"/>
          <g id="Group_10868" data-name="Group 10868" transform="translate(136.214 82.651)">
            <g id="Group_10867" data-name="Group 10867">
              <g id="Group_10866" data-name="Group 10866" clip-path="url(#clip-path-6)">
                <path id="Path_12048" data-name="Path 12048" d="M434.277,261.056c1.3,1.147.439,13.548.671,15.2a4.253,4.253,0,0,1-5.072,4.154,4.238,4.238,0,0,0,7.809-2.281V265.212a4.238,4.238,0,0,0-3.407-4.154" transform="translate(-429.876 -261.056)" fill="#ccc"/>
              </g>
            </g>
          </g>
          <path id="Path_12049" data-name="Path 12049" d="M636.93,266.582v15.659c9.2-.162,9.192-15.5,0-15.659" transform="translate(-435.108 -182.18)" fill="#006c35"/>
          <g id="Group_10871" data-name="Group 10871" transform="translate(201.822 89.955)">
            <g id="Group_10870" data-name="Group 10870">
              <g id="Group_10869" data-name="Group 10869" clip-path="url(#clip-path-4)">
                <path id="Path_12050" data-name="Path 12050" d="M643.654,284.707c0-.2-.014-.39-.026-.583a8.676,8.676,0,0,1,.3,2.281c0,4.324-3.134,7.83-7,7.83v-1.711c3.737-.164,6.724-3.595,6.724-7.814" transform="translate(-636.93 -284.124)" fill="#ccc"/>
              </g>
            </g>
          </g>
          <path id="Path_12051" data-name="Path 12051" d="M619.147,257.531a4.238,4.238,0,0,0-4.24,4.237v12.917a4.24,4.24,0,0,0,8.48,0V261.768a4.238,4.238,0,0,0-4.24-4.237" transform="translate(-420.064 -175.995)" fill="#006c35"/>
          <g id="Group_10874" data-name="Group 10874" transform="translate(194.84 81.618)">
            <g id="Group_10873" data-name="Group 10873">
              <g id="Group_10872" data-name="Group 10872" clip-path="url(#clip-path-8)">
                <path id="Path_12052" data-name="Path 12052" d="M618.309,257.791c-1.3,1.147-.439,13.548-.671,15.2a4.252,4.252,0,0,0,5.072,4.154,4.234,4.234,0,0,1-3.569,1.956,4.281,4.281,0,0,1-4.24-4.241c0-.368,0-12.886,0-13.011a4.239,4.239,0,0,1,3.408-4.058" transform="translate(-614.896 -257.791)" fill="#ccc"/>
              </g>
            </g>
          </g>
          <path id="Path_12053" data-name="Path 12053" d="M530.394,345.2c-2.352.4-7.33,2.987-8.267-.769a2.793,2.793,0,0,1,2.015-3.4c2.3-.393,7.392-2.988,8.267.769a2.793,2.793,0,0,1-2.014,3.4" transform="translate(-356.622 -232.212)" fill="#838889"/>
          <g id="Group_10877" data-name="Group 10877" transform="translate(167.351 107.489)">
            <g id="Group_10876" data-name="Group 10876">
              <g id="Group_10875" data-name="Group 10875" clip-path="url(#clip-path-9)">
                <path id="Path_12054" data-name="Path 12054" d="M536.581,341.6a2.794,2.794,0,0,0-2.638-2.1,2.808,2.808,0,0,1-.168,5.36c-.511.092-5.216,1.439-5.629,1.329,1.068.543,5.3-1.034,6.419-1.194a2.793,2.793,0,0,0,2.014-3.4" transform="translate(-528.147 -339.506)" fill="#ccc"/>
              </g>
            </g>
          </g>
          <g id="Group_10880" data-name="Group 10880" transform="translate(168.34 110.218)">
            <g id="Group_10879" data-name="Group 10879">
              <g id="Group_10878" data-name="Group 10878" clip-path="url(#clip-path-10)">
                <path id="Path_12055" data-name="Path 12055" d="M531.385,348.153a.231.231,0,1,1-.094.314.232.232,0,0,1,.094-.314" transform="translate(-531.265 -348.123)" fill="#ccc"/>
              </g>
            </g>
          </g>
          <g id="Group_10883" data-name="Group 10883" transform="translate(169.748 110.281)">
            <g id="Group_10882" data-name="Group 10882">
              <g id="Group_10881" data-name="Group 10881" clip-path="url(#clip-path-11)">
                <path id="Path_12056" data-name="Path 12056" d="M535.712,348.532a.229.229,0,1,1,.214.243.229.229,0,0,1-.214-.243" transform="translate(-535.711 -348.322)" fill="#ccc"/>
              </g>
            </g>
          </g>
          <g id="Group_10886" data-name="Group 10886" transform="translate(169.712 111.784)">
            <g id="Group_10885" data-name="Group 10885">
              <g id="Group_10884" data-name="Group 10884" clip-path="url(#clip-path-12)">
                <path id="Path_12057" data-name="Path 12057" d="M535.6,353.28a.232.232,0,1,1,.216.246.232.232,0,0,1-.216-.246" transform="translate(-535.594 -353.07)" fill="#ccc"/>
              </g>
            </g>
          </g>
          <g id="Group_10889" data-name="Group 10889" transform="translate(168.656 111.447)">
            <g id="Group_10888" data-name="Group 10888">
              <g id="Group_10887" data-name="Group 10887" clip-path="url(#clip-path-10)">
                <path id="Path_12058" data-name="Path 12058" d="M532.383,352.037a.231.231,0,1,1-.094.314.232.232,0,0,1,.094-.314" transform="translate(-532.263 -352.007)" fill="#ccc"/>
              </g>
            </g>
          </g>
          <g id="Group_10892" data-name="Group 10892" transform="translate(168.938 109.236)">
            <g id="Group_10891" data-name="Group 10891">
              <g id="Group_10890" data-name="Group 10890" clip-path="url(#clip-path-10)">
                <path id="Path_12059" data-name="Path 12059" d="M533.274,345.053a.231.231,0,1,1-.094.314.232.232,0,0,1,.094-.314" transform="translate(-533.154 -345.023)" fill="#ccc"/>
              </g>
            </g>
          </g>
          <g id="Group_10895" data-name="Group 10895" transform="translate(170.299 109.328)">
            <g id="Group_10894" data-name="Group 10894">
              <g id="Group_10893" data-name="Group 10893" clip-path="url(#clip-path-10)">
                <path id="Path_12060" data-name="Path 12060" d="M537.568,345.342a.231.231,0,1,1-.094.314.232.232,0,0,1,.094-.314" transform="translate(-537.448 -345.313)" fill="#ccc"/>
              </g>
            </g>
          </g>
          <g id="Group_10898" data-name="Group 10898" transform="translate(170.956 108.562)">
            <g id="Group_10897" data-name="Group 10897">
              <g id="Group_10896" data-name="Group 10896" clip-path="url(#clip-path-10)">
                <path id="Path_12061" data-name="Path 12061" d="M539.64,342.924a.231.231,0,1,1-.094.314.232.232,0,0,1,.094-.314" transform="translate(-539.52 -342.894)" fill="#ccc"/>
              </g>
            </g>
          </g>
          <g id="Group_10901" data-name="Group 10901" transform="translate(172.086 108.895)">
            <g id="Group_10900" data-name="Group 10900">
              <g id="Group_10899" data-name="Group 10899" clip-path="url(#clip-path-10)">
                <path id="Path_12062" data-name="Path 12062" d="M543.207,343.976a.231.231,0,1,1-.094.314.232.232,0,0,1,.094-.314" transform="translate(-543.087 -343.946)" fill="#ccc"/>
              </g>
            </g>
          </g>
          <g id="Group_10904" data-name="Group 10904" transform="translate(172.61 108.043)">
            <g id="Group_10903" data-name="Group 10903">
              <g id="Group_10902" data-name="Group 10902" clip-path="url(#clip-path-10)">
                <path id="Path_12063" data-name="Path 12063" d="M544.86,341.286a.231.231,0,1,1-.094.314.232.232,0,0,1,.094-.314" transform="translate(-544.74 -341.255)" fill="#ccc"/>
              </g>
            </g>
          </g>
          <g id="Group_10907" data-name="Group 10907" transform="translate(173.655 108.848)">
            <g id="Group_10906" data-name="Group 10906">
              <g id="Group_10905" data-name="Group 10905" clip-path="url(#clip-path-10)">
                <path id="Path_12064" data-name="Path 12064" d="M548.159,343.829a.231.231,0,1,1-.094.314.232.232,0,0,1,.094-.314" transform="translate(-548.04 -343.799)" fill="#ccc"/>
              </g>
            </g>
          </g>
          <g id="Group_10910" data-name="Group 10910" transform="translate(173.241 109.74)">
            <g id="Group_10909" data-name="Group 10909">
              <g id="Group_10908" data-name="Group 10908" clip-path="url(#clip-path-10)">
                <path id="Path_12065" data-name="Path 12065" d="M546.85,346.645a.231.231,0,1,1-.094.314.232.232,0,0,1,.094-.314" transform="translate(-546.73 -346.615)" fill="#ccc"/>
              </g>
            </g>
          </g>
          <g id="Group_10913" data-name="Group 10913" transform="translate(172.522 110.668)">
            <g id="Group_10912" data-name="Group 10912">
              <g id="Group_10911" data-name="Group 10911" clip-path="url(#clip-path-21)">
                <path id="Path_12066" data-name="Path 12066" d="M544.775,350a.231.231,0,1,1,.133-.3.232.232,0,0,1-.133.3" transform="translate(-544.464 -349.547)" fill="#ccc"/>
              </g>
            </g>
          </g>
          <g id="Group_10916" data-name="Group 10916" transform="translate(173.708 110.948)">
            <g id="Group_10915" data-name="Group 10915">
              <g id="Group_10914" data-name="Group 10914" clip-path="url(#clip-path-21)">
                <path id="Path_12067" data-name="Path 12067" d="M548.517,350.879a.231.231,0,1,1,.134-.3.232.232,0,0,1-.134.3" transform="translate(-548.206 -350.429)" fill="#ccc"/>
              </g>
            </g>
          </g>
          <g id="Group_10919" data-name="Group 10919" transform="translate(171.707 111.515)">
            <g id="Group_10918" data-name="Group 10918">
              <g id="Group_10917" data-name="Group 10917" clip-path="url(#clip-path-21)">
                <path id="Path_12068" data-name="Path 12068" d="M542.2,352.67a.231.231,0,1,1,.134-.3.232.232,0,0,1-.134.3" transform="translate(-541.889 -352.22)" fill="#ccc"/>
              </g>
            </g>
          </g>
          <g id="Group_10922" data-name="Group 10922" transform="translate(170.88 110.668)">
            <g id="Group_10921" data-name="Group 10921">
              <g id="Group_10920" data-name="Group 10920" clip-path="url(#clip-path-10)">
                <path id="Path_12069" data-name="Path 12069" d="M539.4,349.576a.231.231,0,1,1-.094.314.232.232,0,0,1,.094-.314" transform="translate(-539.283 -349.546)" fill="#ccc"/>
              </g>
            </g>
          </g>
          <g id="Group_10925" data-name="Group 10925" transform="translate(171.704 109.945)">
            <g id="Group_10924" data-name="Group 10924">
              <g id="Group_10923" data-name="Group 10923" clip-path="url(#clip-path-10)">
                <path id="Path_12070" data-name="Path 12070" d="M542,347.292a.231.231,0,1,1-.094.314.232.232,0,0,1,.094-.314" transform="translate(-541.883 -347.262)" fill="#ccc"/>
              </g>
            </g>
          </g>
          <g id="Group_10928" data-name="Group 10928" transform="translate(166.475 109.883)">
            <g id="Group_10927" data-name="Group 10927">
              <g id="Group_10926" data-name="Group 10926" clip-path="url(#clip-path-26)">
                <path id="Path_12071" data-name="Path 12071" d="M525.38,347.322a.231.231,0,1,1,.261.2.23.23,0,0,1-.261-.2" transform="translate(-525.378 -347.065)" fill="#ccc"/>
              </g>
            </g>
          </g>
          <g id="Group_10931" data-name="Group 10931" transform="translate(167.448 111.013)">
            <g id="Group_10930" data-name="Group 10930">
              <g id="Group_10929" data-name="Group 10929" clip-path="url(#clip-path-10)">
                <path id="Path_12072" data-name="Path 12072" d="M528.57,350.665a.231.231,0,1,1-.094.314.232.232,0,0,1,.094-.314" transform="translate(-528.45 -350.635)" fill="#ccc"/>
              </g>
            </g>
          </g>
          <g id="Group_10934" data-name="Group 10934" transform="translate(167.391 112.243)">
            <g id="Group_10933" data-name="Group 10933">
              <g id="Group_10932" data-name="Group 10932" clip-path="url(#clip-path-10)">
                <path id="Path_12073" data-name="Path 12073" d="M528.392,354.549a.231.231,0,1,1-.094.314.232.232,0,0,1,.094-.314" transform="translate(-528.272 -354.52)" fill="#ccc"/>
              </g>
            </g>
          </g>
          <g id="Group_10937" data-name="Group 10937" transform="translate(174.393 109.874)">
            <g id="Group_10936" data-name="Group 10936">
              <g id="Group_10935" data-name="Group 10935" clip-path="url(#clip-path-29)">
                <path id="Path_12074" data-name="Path 12074" d="M550.682,347.487a.231.231,0,1,1,.134-.3.232.232,0,0,1-.134.3" transform="translate(-550.371 -347.037)" fill="#ccc"/>
              </g>
            </g>
          </g>
          <g id="Group_10940" data-name="Group 10940" transform="translate(167.44 109.509)">
            <g id="Group_10939" data-name="Group 10939">
              <g id="Group_10938" data-name="Group 10938" clip-path="url(#clip-path-10)">
                <path id="Path_12075" data-name="Path 12075" d="M528.546,345.913a.231.231,0,1,1-.094.314.232.232,0,0,1,.094-.314" transform="translate(-528.426 -345.884)" fill="#ccc"/>
              </g>
            </g>
          </g>
          <g id="Group_10943" data-name="Group 10943" transform="translate(166.142 111.049)">
            <g id="Group_10942" data-name="Group 10942">
              <g id="Group_10941" data-name="Group 10941" clip-path="url(#clip-path-10)">
                <path id="Path_12076" data-name="Path 12076" d="M524.448,350.779a.231.231,0,1,1-.094.314.232.232,0,0,1,.094-.314" transform="translate(-524.328 -350.749)" fill="#ccc"/>
              </g>
            </g>
          </g>
          <path id="Path_12077" data-name="Path 12077" d="M470.04,560.1H379.062a4.589,4.589,0,0,1-4.59-4.587V501.8a4.589,4.589,0,0,1,4.59-4.587h90.979a4.589,4.589,0,0,1,4.59,4.587v53.713a4.588,4.588,0,0,1-4.59,4.587" transform="translate(-255.814 -339.8)" fill="#fff"/>
          <path id="Path_12078" data-name="Path 12078" d="M463.153,496.989c-3.175,55.365-46.267,56.013-88.773,53.9.158,2.825-1.067,8.976,3.378,8.978h93.4a3.511,3.511,0,0,0,3.38-3.631V500.621c.038-5.492-8.156-3.175-11.387-3.631" transform="translate(-255.723 -339.566)" fill="rgba(11,192,100,0.1)"/>
          <path id="Path_12079" data-name="Path 12079" d="M516.234,595.884c.029-6.526,10.293-6.525,10.319,0-.027,6.525-10.291,6.525-10.319,0" transform="translate(-352.657 -403.879)" fill="rgba(11,192,100,0.1)"/>
          <path id="Path_12080" data-name="Path 12080" d="M771.729,76.531c-36.728-.658-36.722-55.2,0-55.847,36.727.658,36.721,55.2,0,55.847m0-53.66c-33.85.607-33.844,50.87,0,51.472,33.849-.607,33.843-50.87,0-51.472" transform="translate(-508.378 -14.136)" fill="rgba(0,108,53,0.6)"/>
          <path id="Path_12081" data-name="Path 12081" d="M782.265,86.251c-35.768-.641-35.763-53.752,0-54.389,35.767.641,35.763,53.752,0,54.389m0-53.659c-34.811.624-34.8,52.311,0,52.93,34.811-.624,34.8-52.311,0-52.93" transform="translate(-516.067 -21.774)" fill="rgba(11,192,100,0.4)"/>
          <path id="Path_12082" data-name="Path 12082" d="M769.627,89.611c-35.769-.641-35.763-53.752,0-54.389,35.767.641,35.763,53.752,0,54.389m0-53.659c-34.811.624-34.8,52.311,0,52.93,34.811-.624,34.8-52.311,0-52.93" transform="translate(-507.434 -24.07)" fill="rgba(11,192,100,0.4)"/>
          <path id="Path_12083" data-name="Path 12083" d="M822.742,120.595a3.965,3.965,0,0,1-.457-.276,1.341,1.341,0,0,1,.456.276" transform="translate(-561.733 -82.225)" fill="#fff"/>
          <path id="Path_12084" data-name="Path 12084" d="M817.824,98.426c7.4-.033,7.395-11.269,0-11.3-7.4.033-7.395,11.269,0,11.3" transform="translate(-554.894 -59.541)" fill="#006c35"/>
          <path id="Path_12085" data-name="Path 12085" d="M811.8,118.876c.048.062.1.123.153.185a5.664,5.664,0,0,1-.822.262,2.511,2.511,0,0,1,.669-.446" transform="translate(-554.108 -81.24)" fill="#fff"/>
          <path id="Path_12086" data-name="Path 12086" d="M847.928,119.021c-.1-.041-.2-.087-.3-.135l.03-.036a1.771,1.771,0,0,1,.268.171" transform="translate(-579.045 -81.226)" fill="#fff"/>
          <path id="Path_12087" data-name="Path 12087" d="M820.332,122.62c-2-1.034-4.021,3.438-8.593.095-2.146-1.018-3.367,2.273-3.378,4.247a1.734,1.734,0,0,0,1.712,1.882H820.64c3.2-.4,1.356-5.212-.314-6.222" transform="translate(-552.215 -83.69)" fill="#006c35"/>
          <path id="Path_12088" data-name="Path 12088" d="M854.047,90.72a5.687,5.687,0,0,1-8.13,5.083,7.078,7.078,0,0,0-.8-9.693,5.69,5.69,0,0,1,8.924,4.607" transform="translate(-577.332 -58.136)" fill="#006c35"/>
          <path id="Path_12089" data-name="Path 12089" d="M861.434,124.845a1.734,1.734,0,0,1-1.719,1.881h-5.236a6.462,6.462,0,0,0-.831-4.966c2.511.684,4.242-2.192,5.754-1.254a5.278,5.278,0,0,1,2.033,4.344" transform="translate(-583.155 -82.22)" fill="#006c35"/>
          <path id="Path_12090" data-name="Path 12090" d="M795.22,91.363a6.982,6.982,0,0,0,1.712,4.587,5.652,5.652,0,1,1,.876-10.022,7,7,0,0,0-2.59,5.435" transform="translate(-539.093 -58.129)" fill="#006c35"/>
          <path id="Path_12091" data-name="Path 12091" d="M791.426,125.689a3.22,3.22,0,0,0,.191,1.233c-1.576-.239-6.277.969-6.042-1.881a5.331,5.331,0,0,1,1.836-4.219c1.535-.967,3.027,1.581,5,1.171a7,7,0,0,0-.985,3.7" transform="translate(-536.647 -82.417)" fill="#006c35"/>
          <path id="Path_12092" data-name="Path 12092" d="M28.926,317.944c-36.728-.658-36.722-55.2,0-55.847,36.726.658,36.72,55.2,0,55.847m0-53.659c-33.85.607-33.845,50.87,0,51.472,33.849-.607,33.843-50.87,0-51.472" transform="translate(-0.944 -179.116)" fill="rgba(0,108,53,0.6)"/>
          <path id="Path_12093" data-name="Path 12093" d="M39.461,327.664c-35.768-.641-35.763-53.753,0-54.389,35.767.641,35.761,53.753,0,54.389m0-53.66c-34.811.624-34.8,52.311,0,52.93,34.811-.624,34.8-52.312,0-52.93" transform="translate(-8.632 -186.754)" fill="rgba(11,192,100,0.4)"/>
          <path id="Path_12094" data-name="Path 12094" d="M26.822,331.025c-35.768-.641-35.763-53.752,0-54.389,35.767.641,35.761,53.754,0,54.389m0-53.659c-34.811.624-34.8,52.311,0,52.93,34.811-.624,34.8-52.311,0-52.93" transform="translate(0 -189.051)" fill="rgba(11,192,100,0.4)"/>
          <path id="Path_12095" data-name="Path 12095" d="M46.629,326.748c-8.218-.238-13.592,9.557-9.151,16.351-1.37,1.014-1.911,3.293-2.389,5.669,5.022-2.716,6.57-1.14,11.54-.555,14.118-.239,14.117-21.227,0-21.464" transform="translate(-23.969 -223.294)" fill="#006c35"/>
          <path id="Path_12096" data-name="Path 12096" d="M95.14,326.347c-4.076-3.021-6.232-1.624-10.3-.626A12.166,12.166,0,0,0,74.071,310.1c6.977-12.772,26.07-2.073,18.68,10.575,1.613.959,2.181,3.109,2.389,5.669" transform="translate(-50.601 -207.991)" fill="#006c35"/>
          <path id="Path_12097" data-name="Path 12097" d="M53.887,357.661a1.2,1.2,0,1,1,1.194,1.157,1.195,1.195,0,0,1-1.194-1.157" transform="translate(-36.812 -243.63)" fill="#fff"/>
          <path id="Path_12098" data-name="Path 12098" d="M66.478,357.66a1.2,1.2,0,1,1,1.194,1.142,1.195,1.195,0,0,1-1.194-1.142" transform="translate(-45.412 -243.628)" fill="#fff"/>
          <path id="Path_12099" data-name="Path 12099" d="M79.067,357.661a1.2,1.2,0,1,1,1.194,1.157,1.195,1.195,0,0,1-1.194-1.157" transform="translate(-54.012 -243.63)" fill="#fff"/>
          <path id="Path_12100" data-name="Path 12100" d="M228.444,57.529c-27.392-.49-27.392-41.168,0-41.659,27.392.492,27.392,41.168,0,41.659m0-40.028c-25.25.456-25.245,37.945,0,38.394,25.249-.456,25.245-37.945,0-38.394" transform="translate(-142.02 -10.842)" fill="rgba(0,108,53,0.6)"/>
          <path id="Path_12101" data-name="Path 12101" d="M236.3,64.775c-26.681-.478-26.676-40.1,0-40.571,26.68.478,26.675,40.1,0,40.571m0-40.028c-25.965.465-25.961,39.021,0,39.482,25.964-.465,25.961-39.021,0-39.482" transform="translate(-147.755 -16.541)" fill="rgba(11,192,100,0.4)"/>
          <path id="Path_12102" data-name="Path 12102" d="M226.878,67.281c-26.681-.478-26.676-40.1,0-40.571,26.68.478,26.676,40.1,0,40.571m0-40.028c-25.965.465-25.961,39.021,0,39.483,25.964-.465,25.961-39.021,0-39.483" transform="translate(-141.315 -18.254)" fill="rgba(11,192,100,0.4)"/>
          <path id="Path_12103" data-name="Path 12103" d="M244.063,45.5A13.16,13.16,0,0,1,256.8,59.075c-.331,13.254-19.424,16.992-25.15,5.33-4.794-8.538,2.683-19.667,12.412-18.9" transform="translate(-157.232 -31.068)" fill="#006c35"/>
          <path id="Path_12104" data-name="Path 12104" d="M243.925,45.559c-.457.875-1.4.456-2.1.891-.58.387-.881,1.14-.7,1.383.139.181.51.009.584.161.147.456-1.245,1.176-1.656,1.435-.5.942-1.1,1.357-2.161.981-.466.836-.2,2.77-2.108,1.939-.267.136.016.676-.323,1.172-.649.789-1.255.52-1.787.766-.786,1.722.556,2.576-.332,4.633-.353.83-.8.96-.7,1.381-.1.161.943,1.033,1.141,1.575-.032.3-.6.289-.83.718-.151.282.188.505.05.958-.184.478-.668,1.026-1.255.912a12.877,12.877,0,0,1-.185-11.475c1.148-.86,2.65-1.185,3.156-2.509.861-2.046.494-1.215,2.029-1.646.349-3.025,4.481-3.15,7.172-3.276" transform="translate(-157.331 -31.135)" fill="#0bc064"/>
          <path id="Path_12105" data-name="Path 12105" d="M245.114,79.326c.114.456.9.871,1.429,1.3.811.652.437.456-.032.74-.132.228.2.78.462.762.6-1,2.07-1.52,1.362-2.909.506-.393.927.284,1.214.546.269.084.419-.255.752-.216s.342.415.72.526c.676-.018.867-.342,1.986-.162a6.887,6.887,0,0,1,.988.042c.6.164.636.561,1.2.8,1.289.193,4.908-.114,5.219-.518-1.67-1.065,2.208-1.292,2.554-1.869.923-1.46,1.8-3.193,2.681-4.83,1.866-3.51-1,.141-1.57-3.776-.121-.246-.18-2.419-.636-2.5-.841-.342-.194,2.786-1.125,3.166-1.269.352-1.157-.5-2.018.9-.374-.359-.512-1.368-1.666-1.554-.873.147-.669-.474-1.193-1.04-.591-.368-.994-.26-1.193-1.04-.283-.456-.6-.342-.956-.782-.274-.342-.184-.522-.457-.762-.475-.456-.89-.293-1.493.184-.52.236-.761-.018-1,.2-.29.273.018.7-.3,1.224-.114.2-.189.179-.515.472-.705.637-.621.937-1.041,1.192-.547.33-.857-.078-1.493.184-.808.331-1.294,1.395-1.063,1.684.313.39,1.96-.57,2.234-.152-.5,1.77,1.72.487,2.212.342.187.114.088.8-.3,1.224-1.1,1.061-1.243.08-2.212-.342-2.115.058-.938,2.645-1.141,3.413-.228.342-.685.2-1.019.7-.16.6-.627.626-1.027.945-.352.992-.716.271-1.255.44-.088.084-.007.2-.021.494-.027.545-.337.642-.289.976" transform="translate(-167.442 -45.019)" fill="#0bc064"/>
          <path id="Path_12106" data-name="Path 12106" d="M939.233,342.209c-1.311,28.225-43.9,27.013-43.6-1.236,1.311-28.224,43.9-27.011,43.6,1.236m-41.887-1.187c-.271,26.04,38.98,27.148,40.184,1.14.27-26.039-38.98-27.141-40.184-1.14" transform="translate(-611.836 -218.962)" fill="rgba(0,108,53,0.6)"/>
          <path id="Path_12107" data-name="Path 12107" d="M947.01,336.67c-1.277,27.484-42.751,26.308-42.458-1.2,1.277-27.483,42.751-26.305,42.458,1.2m-41.887-1.187c-.277,26.776,40.085,27.917,41.323,1.17.277-26.776-40.085-27.917-41.323-1.17" transform="translate(-617.927 -215.566)" fill="rgba(11,192,100,0.4)"/>
          <path id="Path_12108" data-name="Path 12108" d="M949.358,346.469c-1.277,27.484-42.751,26.307-42.458-1.2,1.277-27.483,42.751-26.307,42.458,1.2m-41.887-1.187c-.277,26.778,40.085,27.917,41.323,1.17.277-26.776-40.085-27.916-41.323-1.17" transform="translate(-619.529 -222.262)" fill="rgba(11,192,100,0.4)"/>
          <path id="Path_12109" data-name="Path 12109" d="M938.947,386.431l-1.266.019a4.389,4.389,0,0,0-.668-.722c-.021-.381.457-1.494-.1-1.689-.342-.121-.986-.635-1.32-.253-.792.815-.727.9-1.887.8-.749-.912-.807-1.483-2.109-.88-.571.121-.251,1.285-.314,1.659a4.386,4.386,0,0,0-.759.631c-.389.02-1.565-.438-1.778.089-.825,1.2-.166,1.284.649,2.089a4.092,4.092,0,0,0-.064.958c-.905.7-1.578.7-.921,2,.14.552,1.37.239,1.747.3a4.384,4.384,0,0,0,.668.722c.018.381-.457,1.494.1,1.688,1.214.763,1.349.2,2.2-.611a4.707,4.707,0,0,0,1.008.064c.749.912.808,1.483,2.109.882.571-.121.252-1.285.315-1.658a4.417,4.417,0,0,0,.758-.632c.389-.021,1.565.438,1.778-.089.825-1.2.165-1.284-.649-2.089a4.1,4.1,0,0,0,.064-.958c.256-.274,1.429-.737,1.188-1.254-.153-.325-.234-1.113-.749-1.064M934.98,391.9c-3.927,1.368-6.229-4.606-2.118-5.906,3.926-1.368,6.228,4.606,2.118,5.906" transform="translate(-634.049 -262.054)" fill="#006c35"/>
          <path id="Path_12110" data-name="Path 12110" d="M938.836,395.954c-.129,2.933,4.731,3.071,4.766.135.13-2.934-4.73-3.073-4.766-.135m3.61.1a1.232,1.232,0,1,1-1.195-1.165,1.231,1.231,0,0,1,1.195,1.165" transform="translate(-641.349 -269.133)" fill="#006c35"/>
          <path id="Path_12111" data-name="Path 12111" d="M970.984,346.351c-1.631.515-1.447.724-2.953-.181-.2-.518-.05-2.228-.89-2.267-.512-.023-1.624-.474-1.915.187-.8,1.54-.493,1.47-2.216,1.853-1.468-.926-1.666-1.736-3.271-.354-.734.4.237,1.867.314,2.395a6,6,0,0,0-.752,1.167c-1.652.342-2.461-.179-2.569,1.944-.208.791,1.575,1.168,2,1.482a5.946,5.946,0,0,0,.343,1.334c-.966,1.39-1.826,1.57-.362,3.1.431.7,1.968-.22,2.52-.29a6.591,6.591,0,0,0,1.235.717c.194.52.054,2.227.89,2.267,2.065.523,1.857-.187,2.728-1.722a6.64,6.64,0,0,0,1.4-.319c1.468.925,1.667,1.737,3.272.355.734-.4-.236-1.866-.313-2.395a6.068,6.068,0,0,0,.752-1.169c1.652-.342,2.461.179,2.569-1.944.209-.791-1.575-1.169-2-1.482a5.932,5.932,0,0,0-.342-1.334c.228-.482,1.62-1.59,1.058-2.2-.353-.381-.816-1.428-1.5-1.154m-2.967,9.068c-4.787,3.37-10.565-3.61-5.533-7.219,4.786-3.369,10.564,3.612,5.533,7.219" transform="translate(-653.563 -234.903)" fill="#006c35"/>
          <path id="Path_12112" data-name="Path 12112" d="M972.962,363.273c1.081,4.007,7.809,2.364,6.564-1.737-1.08-4.01-7.809-2.367-6.564,1.737m4.972-1.316c.639,2.11-2.824,2.955-3.38.894-.64-2.112,2.824-2.958,3.38-.894" transform="translate(-664.559 -245.498)" fill="#006c35"/>
          <path id="Path_12113" data-name="Path 12113" d="M904.858,253.337c-.12.3-5.206,7.037-4.933,7.256.866.868,2.479.071,3.433-.63,3.267-2.681,3.508-8.128-.79-9.97-11.765-4.555-14.531,16.382-.976,13.6l1.874.924c-13.23,5.218-17.828-14.38-4.579-16.793a7.476,7.476,0,0,1,5.356,13.443c-1.552,1.4-6.629,2.281-6.349-.86-3.479,1.368-5.564-2.352-3.774-5.387,1.37-3.41,7.373-6.794,8.281-1.512l.675-.951Zm-9.039,2.978c-.9,1.465-.25,3.492,1.606,2.827,1.414-.706,4.036-3.877,3.766-5.612-1.416-3.068-4.649,1.115-5.376,2.785" transform="translate(-608.64 -169.278)" fill="rgba(11,192,100,0.4)"/>
          <g id="Group_10946" data-name="Group 10946" transform="translate(275.343 110.632)" opacity="0.109">
            <g id="Group_10945" data-name="Group 10945">
              <g id="Group_10944" data-name="Group 10944" clip-path="url(#clip-path-32)">
                <path id="Path_12114" data-name="Path 12114" d="M873.406,353.555a.456.456,0,0,0,.431-.534,2.181,2.181,0,0,0-.913-1.191,25.157,25.157,0,0,0-2.18-1.761,2.183,2.183,0,0,0-1.357-.637.456.456,0,0,0-.431.534,2.181,2.181,0,0,0,.913,1.192,25.483,25.483,0,0,0,2.181,1.761,2.183,2.183,0,0,0,1.357.638" transform="translate(-868.958 -349.432)" fill="#fff"/>
              </g>
            </g>
          </g>
          <g id="Group_10949" data-name="Group 10949" transform="translate(271.933 108.258)" opacity="0.109">
            <g id="Group_10948" data-name="Group 10948">
              <g id="Group_10947" data-name="Group 10947" clip-path="url(#clip-path-33)">
                <path id="Path_12115" data-name="Path 12115" d="M863.036,346.278a.431.431,0,0,0,.425-.539,2.478,2.478,0,0,0-1.011-1.254,29.511,29.511,0,0,0-2.372-1.867,2.479,2.479,0,0,0-1.453-.684.431.431,0,0,0-.425.538,2.483,2.483,0,0,0,1.011,1.254,29.394,29.394,0,0,0,2.372,1.866,2.483,2.483,0,0,0,1.453.684" transform="translate(-858.195 -341.934)" fill="#fff"/>
              </g>
            </g>
          </g>
          <g id="Group_10952" data-name="Group 10952" transform="translate(277.102 107.734)" opacity="0.109">
            <g id="Group_10951" data-name="Group 10951">
              <g id="Group_10950" data-name="Group 10950" clip-path="url(#clip-path-34)">
                <path id="Path_12116" data-name="Path 12116" d="M875.491,342.18a.913.913,0,0,0,.883-.763c0-.342-.618-1.14-.984-1.14a.913.913,0,0,0-.883.763c0,.342.617,1.14.984,1.14" transform="translate(-874.507 -340.279)" fill="#fff"/>
              </g>
            </g>
          </g>
          <g id="Group_10955" data-name="Group 10955" transform="translate(272.965 104.186)" opacity="0.109">
            <g id="Group_10954" data-name="Group 10954">
              <g id="Group_10953" data-name="Group 10953" clip-path="url(#clip-path-35)">
                <path id="Path_12117" data-name="Path 12117" d="M867.563,336.145q.589.131.5-.466a4.938,4.938,0,0,0-1.293-1.918q-1.44-1.667-2.994-3.228a4.936,4.936,0,0,0-1.817-1.435q-.589-.131-.5.466a4.927,4.927,0,0,0,1.294,1.918q1.44,1.666,2.994,3.228a4.93,4.93,0,0,0,1.816,1.435" transform="translate(-861.449 -329.074)" fill="#fff"/>
              </g>
            </g>
          </g>
          <g id="Group_10958" data-name="Group 10958" transform="translate(279.328 107.242)" opacity="0.109">
            <g id="Group_10957" data-name="Group 10957">
              <g id="Group_10956" data-name="Group 10956" clip-path="url(#clip-path-36)">
                <path id="Path_12118" data-name="Path 12118" d="M882.826,340.871a1.037,1.037,0,0,0,.571-.387.547.547,0,0,0-.009-.645,3.5,3.5,0,0,0-.584-.857.548.548,0,0,0-.6-.244,1.036,1.036,0,0,0-.571.387.547.547,0,0,0,.009.645,3.5,3.5,0,0,0,.584.856.548.548,0,0,0,.6.244" transform="translate(-881.533 -338.724)" fill="#fff"/>
              </g>
            </g>
          </g>
          <g id="Group_10961" data-name="Group 10961" transform="translate(274.793 110.446)" opacity="0.109">
            <g id="Group_10960" data-name="Group 10960">
              <g id="Group_10959" data-name="Group 10959" clip-path="url(#clip-path-37)">
                <path id="Path_12119" data-name="Path 12119" d="M868.478,350.739a.874.874,0,0,0,.721-.912,1.754,1.754,0,0,0-1.248-.98.874.874,0,0,0-.721.912,1.755,1.755,0,0,0,1.247.98" transform="translate(-867.221 -348.842)" fill="#fff"/>
              </g>
            </g>
          </g>
          <g id="Group_10964" data-name="Group 10964" transform="translate(275.106 112.739)" opacity="0.109">
            <g id="Group_10963" data-name="Group 10963">
              <g id="Group_10962" data-name="Group 10962" clip-path="url(#clip-path-38)">
                <path id="Path_12120" data-name="Path 12120" d="M871.011,358.8c.587,0,.966-.406.633-.981a8.3,8.3,0,0,0-2.679-1.728c-.587,0-.966.406-.633.98a8.264,8.264,0,0,0,2.677,1.729" transform="translate(-868.209 -356.088)" fill="#fff"/>
              </g>
            </g>
          </g>
          <g id="Group_10967" data-name="Group 10967" transform="translate(276.961 105.218)" opacity="0.109">
            <g id="Group_10966" data-name="Group 10966">
              <g id="Group_10965" data-name="Group 10965" clip-path="url(#clip-path-39)">
                <path id="Path_12121" data-name="Path 12121" d="M878.157,338.226c1.246,0,0-1.7-.209-2.021q-.944-1.391-2.011-2.691a3,3,0,0,0-1.33-1.184c-1.246,0,0,1.7.209,2.021q.944,1.391,2.011,2.691a3,3,0,0,0,1.331,1.184" transform="translate(-874.06 -332.335)" fill="#fff"/>
              </g>
            </g>
          </g>
          <g id="Group_10970" data-name="Group 10970" transform="translate(275.367 108.512)" opacity="0.109">
            <g id="Group_10969" data-name="Group 10969">
              <g id="Group_10968" data-name="Group 10968" clip-path="url(#clip-path-40)">
                <path id="Path_12122" data-name="Path 12122" d="M870.547,345.017a.754.754,0,0,0,.808-.842,3.567,3.567,0,0,0-1.5-1.438.754.754,0,0,0-.808.842,3.566,3.566,0,0,0,1.5,1.438" transform="translate(-869.031 -342.737)" fill="#fff"/>
              </g>
            </g>
          </g>
          <g id="Group_10973" data-name="Group 10973" transform="translate(274.621 104.549)" opacity="0.109">
            <g id="Group_10972" data-name="Group 10972">
              <g id="Group_10971" data-name="Group 10971" clip-path="url(#clip-path-41)">
                <path id="Path_12123" data-name="Path 12123" d="M870.267,334.881c1.141,0,.07-1.482-.121-1.749a23.838,23.838,0,0,0-1.762-2.069,2.07,2.07,0,0,0-1.187-.844c-1.141,0-.069,1.482.121,1.75a23.774,23.774,0,0,0,1.762,2.069,2.074,2.074,0,0,0,1.187.844" transform="translate(-866.678 -330.219)" fill="#fff"/>
              </g>
            </g>
          </g>
          <g id="Group_10976" data-name="Group 10976" transform="translate(275.966 107.322)" opacity="0.109">
            <g id="Group_10975" data-name="Group 10975">
              <g id="Group_10974" data-name="Group 10974" clip-path="url(#clip-path-42)">
                <path id="Path_12124" data-name="Path 12124" d="M875.756,344.688c1.325,0-.326-1.875-.457-2.041q-1.126-1.339-2.367-2.574a3.229,3.229,0,0,0-1.492-1.1c-1.325,0,.326,1.875.457,2.042q1.126,1.339,2.367,2.574a3.226,3.226,0,0,0,1.492,1.1" transform="translate(-870.926 -338.977)" fill="#fff"/>
              </g>
            </g>
          </g>
          <g id="Group_10979" data-name="Group 10979" transform="translate(274.905 111.927)" opacity="0.109">
            <g id="Group_10978" data-name="Group 10978">
              <g id="Group_10977" data-name="Group 10977" clip-path="url(#clip-path-43)">
                <path id="Path_12125" data-name="Path 12125" d="M869.066,355.5a.814.814,0,0,0,.663-.961,2.123,2.123,0,0,0-1.469-1.01.813.813,0,0,0-.663.96,2.123,2.123,0,0,0,1.469,1.012" transform="translate(-867.574 -353.525)" fill="#fff"/>
              </g>
            </g>
          </g>
          <path id="Path_12126" data-name="Path 12126" d="M195.8,213.331l-11.107-.323c.685-.964,14.565-9.585,15.734-9.772Z" transform="translate(-126.167 -138.89)" fill="rgba(11,192,100,0.4)"/>
          <path id="Path_12127" data-name="Path 12127" d="M201.911,204.7c8.8,13.571,6.486,8.5-9.806,19.747a2.445,2.445,0,0,1-3.366-.786c-.431-1.033-5.656-8.177-5.193-9.3l12.107.352,5.045-11a2.431,2.431,0,0,1,1.213.994" transform="translate(-125.366 -139.21)" fill="rgba(11,192,100,0.4)"/>
          <path id="Path_12128" data-name="Path 12128" d="M706.6,10.914c-2.182-2.248-3.652,1.211-5.707-.125-1.826-1.3-5.569-3.623-4.624-6.363A2.68,2.68,0,0,0,692.321.809l-1.5,1.53c-4.612,3.618,6.565,12.329,10.631,14.711,2.149,1.268,3.506-.62,4.765-1.915h0a2.787,2.787,0,0,0,.38-4.219" transform="translate(-471.177 0.004)" fill="rgba(11,192,100,0.4)"/>
          <path id="Path_12129" data-name="Path 12129" d="M378.62,15.142,374.987,17.5c-2.531-3.036.181-4.916-.265-8.019-1.562-1.884-3.829.989-2.355,2.819l-4.007,1.95C363.909,7.636,377.65.144,379.147,8.716c.228,1.642-1.968,4.771-.526,6.427m-3.128,3.4,3.891-2.526,2.23,3.429-3.891,2.526Z" transform="translate(-251.035 -3.326)" fill="rgba(11,192,100,0.4)"/>
          <path id="Path_12130" data-name="Path 12130" d="M331.161,348.334c.685-1.15-2.006-.541-2.268-1.156-1.082-2.411-1.155-2.426-2.283-.018-.087.342-1.815.364-2.064.456-1.23.527,1.306,1.616,1.154,2.267-.543,2.586-.492,2.641,1.834,1.355.58-.334,2.365,1.766,2.511.437-.4-2.236-.535-1.795,1.116-3.337" transform="translate(-221.479 -236.018)" fill="rgba(11,192,100,0.4)"/>
          <path id="Path_12131" data-name="Path 12131" d="M136.361,575.059c.685-1.149-2.006-.541-2.268-1.156-1.083-2.412-1.156-2.427-2.283-.019-.087.342-1.815.364-2.064.456-1.23.527,1.306,1.616,1.154,2.267-.542,2.586-.492,2.641,1.835,1.355.579-.334,2.365,1.767,2.511.437-.4-2.236-.535-1.795,1.115-3.338" transform="translate(-88.402 -390.961)" fill="rgba(11,192,100,0.4)"/>
          <path id="Path_12132" data-name="Path 12132" d="M560.589,51.206c.685-1.15-2.006-.541-2.267-1.156-1.083-2.411-1.156-2.426-2.283-.018-.087.342-1.815.363-2.063.456-1.23.527,1.306,1.616,1.154,2.267-.542,2.586-.492,2.641,1.834,1.355.579-.334,2.365,1.766,2.511.437-.4-2.236-.535-1.795,1.115-3.337" transform="translate(-378.209 -32.962)" fill="rgba(11,192,100,0.4)"/>
          <path id="Path_12133" data-name="Path 12133" d="M771.461,243.407c.685-1.148-2.006-.541-2.268-1.156-1.083-2.411-1.156-2.426-2.283-.018-.087.342-1.815.363-2.063.456-1.23.527,1.306,1.615,1.154,2.267-.542,2.586-.492,2.641,1.834,1.355.58-.334,2.365,1.766,2.511.437-.4-2.236-.536-1.795,1.115-3.338" transform="translate(-522.262 -164.311)" fill="rgba(11,192,100,0.4)"/>
          <path id="Path_12134" data-name="Path 12134" d="M697.518,366.813c.685-1.15-2.006-.541-2.268-1.156-1.082-2.411-1.155-2.426-2.283-.018-.087.342-1.815.364-2.063.456-1.23.527,1.306,1.616,1.154,2.267-.542,2.586-.492,2.641,1.835,1.355.579-.334,2.365,1.766,2.511.437-.4-2.236-.535-1.795,1.116-3.337" transform="translate(-471.751 -248.646)" fill="rgba(11,192,100,0.4)"/>
          <path id="Path_12135" data-name="Path 12135" d="M942.161,615.527c.685-1.15-2.006-.541-2.268-1.156-1.083-2.411-1.155-2.426-2.283-.018-.087.342-1.815.363-2.064.456-1.23.527,1.306,1.616,1.154,2.267-.542,2.586-.492,2.641,1.834,1.355.58-.334,2.366,1.765,2.511.437-.4-2.236-.535-1.795,1.116-3.338" transform="translate(-638.872 -418.616)" fill="rgba(11,192,100,0.4)"/>
          <path id="Path_12136" data-name="Path 12136" d="M357.288,141.732c.685-1.148-2.006-.541-2.268-1.156-1.083-2.411-1.156-2.426-2.283-.018-.088.342-1.815.364-2.064.456-1.23.527,1.306,1.616,1.154,2.267-.542,2.586-.492,2.641,1.834,1.355.58-.334,2.365,1.766,2.511.437-.4-2.236-.535-1.795,1.116-3.338" transform="translate(-239.328 -94.827)" fill="rgba(11,192,100,0.4)"/>
          <path id="Path_12137" data-name="Path 12137" d="M357.266,700.592H110.4a3.592,3.592,0,1,1,0-7.185h246.87a3.592,3.592,0,1,1,0,7.184" transform="translate(-72.958 -473.872)" fill="rgba(11,192,100,0.4)"/>
        </g>
      </g>
    </g>
  </g>
</svg>
