<svg id="Iconly_Bold_Image" data-name="Iconly/Bold/Image" xmlns="http://www.w3.org/2000/svg" width="20" height="20" viewBox="0 0 20 20">
  <g id="Image" transform="translate(0 0)">
    <path id="Image-2" data-name="Image" d="M14.332,20H5.666C2.277,20,0,17.622,0,14.083V5.917C0,2.378,2.277,0,5.666,0h8.667C17.723,0,20,2.378,20,5.917v8.167C20,17.622,17.722,20,14.332,20ZM6.307,13.241c-.5,0-1.018.383-1.724,1.279l-.038.048c-.45.569-.912,1.155-1.371,1.726a.8.8,0,0,0-.162.633.716.716,0,0,0,.328.5A4.112,4.112,0,0,0,5.529,18h8.428a4.524,4.524,0,0,0,1.407-.214,3.717,3.717,0,0,0,2.261-2.111,3.756,3.756,0,0,0,.2-2.741,2.263,2.263,0,0,0-.513-.784l0,0a10.811,10.811,0,0,0-1.868-1.6,1.429,1.429,0,0,0-.76-.235,1.874,1.874,0,0,0-1.363.806c-.177.238-.33.491-.492.759l-.1.171-.007.012a5.683,5.683,0,0,1-1.96,2.218,2.487,2.487,0,0,1-1.208.335,3.516,3.516,0,0,1-1.959-.785,5.491,5.491,0,0,0-.827-.49A1.12,1.12,0,0,0,6.307,13.241ZM6.5,4A2.5,2.5,0,1,0,9,6.5,2.5,2.5,0,0,0,6.5,4Z" fill="#006c35"/>
  </g>
</svg>
