<svg xmlns="http://www.w3.org/2000/svg" width="20.003" height="19.001" viewBox="0 0 20.003 19.001">
  <path id="Star" d="M15.919,11.82a1.1,1.1,0,0,0-.319.97l.889,4.92a1.08,1.08,0,0,1-.45,1.08,1.1,1.1,0,0,1-1.17.08L10.44,16.56a1.131,1.131,0,0,0-.5-.131H9.669a.812.812,0,0,0-.27.09L4.969,18.84a1.168,1.168,0,0,1-.71.11,1.112,1.112,0,0,1-.89-1.271l.89-4.92a1.119,1.119,0,0,0-.319-.979L.329,8.28A1.08,1.08,0,0,1,.06,7.15,1.123,1.123,0,0,1,.949,6.4l4.97-.721A1.112,1.112,0,0,0,6.8,5.07L8.989.58a1.041,1.041,0,0,1,.2-.27l.09-.07A.671.671,0,0,1,9.44.11L9.549.07,9.719,0h.421a1.119,1.119,0,0,1,.88.6l2.219,4.47a1.111,1.111,0,0,0,.83.609l4.97.721a1.134,1.134,0,0,1,.91.75,1.086,1.086,0,0,1-.29,1.13Z" fill="#bbb"/>
</svg>
