<svg id="Iconly_Bold_3_User" data-name="Iconly/Bold/3 User" xmlns="http://www.w3.org/2000/svg" width="24" height="19" viewBox="0 0 24 19">
  <g id="_3_User" data-name="3 User" transform="translate(0)">
    <path id="_3_Friends" data-name="3 Friends" d="M5.005,15.77c0-2.585,3.175-3.254,6.939-3.254,3.743,0,6.939.646,6.939,3.231S15.708,19,11.945,19C8.2,19,5.005,18.354,5.005,15.77Zm15.816.479a5.31,5.31,0,0,0-2.9-5.2.054.054,0,0,1-.031-.056.042.042,0,0,1,.035-.031,15.569,15.569,0,0,1,3.538.338,3,3,0,0,1,2.325,1.548,2.472,2.472,0,0,1,0,1.984c-.5,1.185-2.121,1.567-2.75,1.665l-.029,0A.212.212,0,0,1,20.821,16.249Zm-17.863.244c-.628-.1-2.247-.479-2.749-1.665a2.454,2.454,0,0,1,0-1.983A3,3,0,0,1,2.533,11.3a15.723,15.723,0,0,1,3.538-.336.041.041,0,0,1,.034.03.056.056,0,0,1-.03.057,5.305,5.305,0,0,0-2.9,5.2.211.211,0,0,1-.192.247ZM7.353,5.026A4.806,4.806,0,0,1,11.945,0a4.806,4.806,0,0,1,4.592,5.026,4.808,4.808,0,0,1-4.592,5.027A4.807,4.807,0,0,1,7.353,5.026ZM18.068,9.312a3.412,3.412,0,0,1-.527-.056.192.192,0,0,1-.116-.291A7.282,7.282,0,0,0,18.5,5.117a7.318,7.318,0,0,0-1.165-4,.135.135,0,0,1-.018-.131.141.141,0,0,1,.09-.059,3.527,3.527,0,0,1,.773-.087A4.184,4.184,0,0,1,21.914,6.2a3.9,3.9,0,0,1-3.741,3.115ZM2.085,6.2A4.184,4.184,0,0,1,5.821.838a3.549,3.549,0,0,1,.774.087.145.145,0,0,1,.089.059.133.133,0,0,1-.018.13,7.325,7.325,0,0,0-1.165,4A7.273,7.273,0,0,0,6.575,8.966a.193.193,0,0,1-.117.291,3.3,3.3,0,0,1-.527.056l-.105,0A3.9,3.9,0,0,1,2.085,6.2Z" fill="#006c35"/>
  </g>
</svg>
