<svg xmlns="http://www.w3.org/2000/svg" width="20" height="20" viewBox="0 0 20 20">
  <g id="Time_Square" data-name="Time Square" transform="translate(0 0)">
    <path id="Time_Square-2" data-name="Time Square" d="M14.34,20H5.67C2.279,20,0,17.624,0,14.089V5.919C0,2.379,2.279,0,5.67,0h8.67C17.725,0,20,2.379,20,5.919v8.169C20,17.624,17.725,20,14.34,20ZM9.65,4.919a.76.76,0,0,0-.75.75V10.72a.733.733,0,0,0,.37.64l3.92,2.34a.7.7,0,0,0,.39.11.745.745,0,0,0,.64-.37.72.72,0,0,0,.09-.552.762.762,0,0,0-.35-.477L10.4,10.29V5.669A.751.751,0,0,0,9.65,4.919Z" fill="#006c35"/>
  </g>
</svg>
